<?xml version="1.0" encoding="utf-8" standalone="no"?>
<!DOCTYPE svg PUBLIC "-//W3C//DTD SVG 1.1//EN"
  "http://www.w3.org/Graphics/SVG/1.1/DTD/svg11.dtd">
<!-- Created with matplotlib (https://matplotlib.org/) -->
<svg height="345.6pt" version="1.1" viewBox="0 0 460.8 345.6" width="460.8pt" xmlns="http://www.w3.org/2000/svg" xmlns:xlink="http://www.w3.org/1999/xlink">
 <defs>
  <style type="text/css">
*{stroke-linecap:butt;stroke-linejoin:round;}
  </style>
 </defs>
 <g id="figure_1">
  <g id="patch_1">
   <path d="M 0 345.6 
L 460.8 345.6 
L 460.8 0 
L 0 0 
z
" style="fill:#ffffff;"/>
  </g>
  <g id="axes_1">
   <g id="patch_2">
    <path d="M 57.6 307.584 
L 414.72 307.584 
L 414.72 41.472 
L 57.6 41.472 
z
" style="fill:#ffffff;"/>
   </g>
   <g id="matplotlib.axis_1">
    <g id="xtick_1">
     <g id="line2d_1">
      <path clip-path="url(#p34143d6d51)" d="M 73.716942 307.584 
L 73.716942 41.472 
" style="fill:none;stroke:#b0b0b0;stroke-linecap:square;stroke-width:0.8;"/>
     </g>
     <g id="line2d_2">
      <defs>
       <path d="M 0 0 
L 0 3.5 
" id="mef5114e006" style="stroke:#000000;stroke-width:0.8;"/>
      </defs>
      <g>
       <use style="stroke:#000000;stroke-width:0.8;" x="73.716942" xlink:href="#mef5114e006" y="307.584"/>
      </g>
     </g>
     <g id="text_1">
      <!-- 0 -->
      <defs>
       <path d="M 31.78125 66.40625 
Q 24.171875 66.40625 20.328125 58.90625 
Q 16.5 51.421875 16.5 36.375 
Q 16.5 21.390625 20.328125 13.890625 
Q 24.171875 6.390625 31.78125 6.390625 
Q 39.453125 6.390625 43.28125 13.890625 
Q 47.125 21.390625 47.125 36.375 
Q 47.125 51.421875 43.28125 58.90625 
Q 39.453125 66.40625 31.78125 66.40625 
z
M 31.78125 74.21875 
Q 44.046875 74.21875 50.515625 64.515625 
Q 56.984375 54.828125 56.984375 36.375 
Q 56.984375 17.96875 50.515625 8.265625 
Q 44.046875 -1.421875 31.78125 -1.421875 
Q 19.53125 -1.421875 13.0625 8.265625 
Q 6.59375 17.96875 6.59375 36.375 
Q 6.59375 54.828125 13.0625 64.515625 
Q 19.53125 74.21875 31.78125 74.21875 
z
" id="DejaVuSans-48"/>
      </defs>
      <g transform="translate(70.535692 322.182437)scale(0.1 -0.1)">
       <use xlink:href="#DejaVuSans-48"/>
      </g>
     </g>
    </g>
    <g id="xtick_2">
     <g id="line2d_3">
      <path clip-path="url(#p34143d6d51)" d="M 113.81005 307.584 
L 113.81005 41.472 
" style="fill:none;stroke:#b0b0b0;stroke-linecap:square;stroke-width:0.8;"/>
     </g>
     <g id="line2d_4">
      <g>
       <use style="stroke:#000000;stroke-width:0.8;" x="113.81005" xlink:href="#mef5114e006" y="307.584"/>
      </g>
     </g>
     <g id="text_2">
      <!-- 25 -->
      <defs>
       <path d="M 19.1875 8.296875 
L 53.609375 8.296875 
L 53.609375 0 
L 7.328125 0 
L 7.328125 8.296875 
Q 12.9375 14.109375 22.625 23.890625 
Q 32.328125 33.6875 34.8125 36.53125 
Q 39.546875 41.84375 41.421875 45.53125 
Q 43.3125 49.21875 43.3125 52.78125 
Q 43.3125 58.59375 39.234375 62.25 
Q 35.15625 65.921875 28.609375 65.921875 
Q 23.96875 65.921875 18.8125 64.3125 
Q 13.671875 62.703125 7.8125 59.421875 
L 7.8125 69.390625 
Q 13.765625 71.78125 18.9375 73 
Q 24.125 74.21875 28.421875 74.21875 
Q 39.75 74.21875 46.484375 68.546875 
Q 53.21875 62.890625 53.21875 53.421875 
Q 53.21875 48.921875 51.53125 44.890625 
Q 49.859375 40.875 45.40625 35.40625 
Q 44.1875 33.984375 37.640625 27.21875 
Q 31.109375 20.453125 19.1875 8.296875 
z
" id="DejaVuSans-50"/>
       <path d="M 10.796875 72.90625 
L 49.515625 72.90625 
L 49.515625 64.59375 
L 19.828125 64.59375 
L 19.828125 46.734375 
Q 21.96875 47.46875 24.109375 47.828125 
Q 26.265625 48.1875 28.421875 48.1875 
Q 40.625 48.1875 47.75 41.5 
Q 54.890625 34.8125 54.890625 23.390625 
Q 54.890625 11.625 47.5625 5.09375 
Q 40.234375 -1.421875 26.90625 -1.421875 
Q 22.3125 -1.421875 17.546875 -0.640625 
Q 12.796875 0.140625 7.71875 1.703125 
L 7.71875 11.625 
Q 12.109375 9.234375 16.796875 8.0625 
Q 21.484375 6.890625 26.703125 6.890625 
Q 35.15625 6.890625 40.078125 11.328125 
Q 45.015625 15.765625 45.015625 23.390625 
Q 45.015625 31 40.078125 35.4375 
Q 35.15625 39.890625 26.703125 39.890625 
Q 22.75 39.890625 18.8125 39.015625 
Q 14.890625 38.140625 10.796875 36.28125 
z
" id="DejaVuSans-53"/>
      </defs>
      <g transform="translate(107.44755 322.182437)scale(0.1 -0.1)">
       <use xlink:href="#DejaVuSans-50"/>
       <use x="63.623047" xlink:href="#DejaVuSans-53"/>
      </g>
     </g>
    </g>
    <g id="xtick_3">
     <g id="line2d_5">
      <path clip-path="url(#p34143d6d51)" d="M 153.903159 307.584 
L 153.903159 41.472 
" style="fill:none;stroke:#b0b0b0;stroke-linecap:square;stroke-width:0.8;"/>
     </g>
     <g id="line2d_6">
      <g>
       <use style="stroke:#000000;stroke-width:0.8;" x="153.903159" xlink:href="#mef5114e006" y="307.584"/>
      </g>
     </g>
     <g id="text_3">
      <!-- 50 -->
      <g transform="translate(147.540659 322.182437)scale(0.1 -0.1)">
       <use xlink:href="#DejaVuSans-53"/>
       <use x="63.623047" xlink:href="#DejaVuSans-48"/>
      </g>
     </g>
    </g>
    <g id="xtick_4">
     <g id="line2d_7">
      <path clip-path="url(#p34143d6d51)" d="M 193.996268 307.584 
L 193.996268 41.472 
" style="fill:none;stroke:#b0b0b0;stroke-linecap:square;stroke-width:0.8;"/>
     </g>
     <g id="line2d_8">
      <g>
       <use style="stroke:#000000;stroke-width:0.8;" x="193.996268" xlink:href="#mef5114e006" y="307.584"/>
      </g>
     </g>
     <g id="text_4">
      <!-- 75 -->
      <defs>
       <path d="M 8.203125 72.90625 
L 55.078125 72.90625 
L 55.078125 68.703125 
L 28.609375 0 
L 18.3125 0 
L 43.21875 64.59375 
L 8.203125 64.59375 
z
" id="DejaVuSans-55"/>
      </defs>
      <g transform="translate(187.633768 322.182437)scale(0.1 -0.1)">
       <use xlink:href="#DejaVuSans-55"/>
       <use x="63.623047" xlink:href="#DejaVuSans-53"/>
      </g>
     </g>
    </g>
    <g id="xtick_5">
     <g id="line2d_9">
      <path clip-path="url(#p34143d6d51)" d="M 234.089376 307.584 
L 234.089376 41.472 
" style="fill:none;stroke:#b0b0b0;stroke-linecap:square;stroke-width:0.8;"/>
     </g>
     <g id="line2d_10">
      <g>
       <use style="stroke:#000000;stroke-width:0.8;" x="234.089376" xlink:href="#mef5114e006" y="307.584"/>
      </g>
     </g>
     <g id="text_5">
      <!-- 100 -->
      <defs>
       <path d="M 12.40625 8.296875 
L 28.515625 8.296875 
L 28.515625 63.921875 
L 10.984375 60.40625 
L 10.984375 69.390625 
L 28.421875 72.90625 
L 38.28125 72.90625 
L 38.28125 8.296875 
L 54.390625 8.296875 
L 54.390625 0 
L 12.40625 0 
z
" id="DejaVuSans-49"/>
      </defs>
      <g transform="translate(224.545626 322.182437)scale(0.1 -0.1)">
       <use xlink:href="#DejaVuSans-49"/>
       <use x="63.623047" xlink:href="#DejaVuSans-48"/>
       <use x="127.246094" xlink:href="#DejaVuSans-48"/>
      </g>
     </g>
    </g>
    <g id="xtick_6">
     <g id="line2d_11">
      <path clip-path="url(#p34143d6d51)" d="M 274.182485 307.584 
L 274.182485 41.472 
" style="fill:none;stroke:#b0b0b0;stroke-linecap:square;stroke-width:0.8;"/>
     </g>
     <g id="line2d_12">
      <g>
       <use style="stroke:#000000;stroke-width:0.8;" x="274.182485" xlink:href="#mef5114e006" y="307.584"/>
      </g>
     </g>
     <g id="text_6">
      <!-- 125 -->
      <g transform="translate(264.638735 322.182437)scale(0.1 -0.1)">
       <use xlink:href="#DejaVuSans-49"/>
       <use x="63.623047" xlink:href="#DejaVuSans-50"/>
       <use x="127.246094" xlink:href="#DejaVuSans-53"/>
      </g>
     </g>
    </g>
    <g id="xtick_7">
     <g id="line2d_13">
      <path clip-path="url(#p34143d6d51)" d="M 314.275594 307.584 
L 314.275594 41.472 
" style="fill:none;stroke:#b0b0b0;stroke-linecap:square;stroke-width:0.8;"/>
     </g>
     <g id="line2d_14">
      <g>
       <use style="stroke:#000000;stroke-width:0.8;" x="314.275594" xlink:href="#mef5114e006" y="307.584"/>
      </g>
     </g>
     <g id="text_7">
      <!-- 150 -->
      <g transform="translate(304.731844 322.182437)scale(0.1 -0.1)">
       <use xlink:href="#DejaVuSans-49"/>
       <use x="63.623047" xlink:href="#DejaVuSans-53"/>
       <use x="127.246094" xlink:href="#DejaVuSans-48"/>
      </g>
     </g>
    </g>
    <g id="xtick_8">
     <g id="line2d_15">
      <path clip-path="url(#p34143d6d51)" d="M 354.368702 307.584 
L 354.368702 41.472 
" style="fill:none;stroke:#b0b0b0;stroke-linecap:square;stroke-width:0.8;"/>
     </g>
     <g id="line2d_16">
      <g>
       <use style="stroke:#000000;stroke-width:0.8;" x="354.368702" xlink:href="#mef5114e006" y="307.584"/>
      </g>
     </g>
     <g id="text_8">
      <!-- 175 -->
      <g transform="translate(344.824952 322.182437)scale(0.1 -0.1)">
       <use xlink:href="#DejaVuSans-49"/>
       <use x="63.623047" xlink:href="#DejaVuSans-55"/>
       <use x="127.246094" xlink:href="#DejaVuSans-53"/>
      </g>
     </g>
    </g>
    <g id="xtick_9">
     <g id="line2d_17">
      <path clip-path="url(#p34143d6d51)" d="M 394.461811 307.584 
L 394.461811 41.472 
" style="fill:none;stroke:#b0b0b0;stroke-linecap:square;stroke-width:0.8;"/>
     </g>
     <g id="line2d_18">
      <g>
       <use style="stroke:#000000;stroke-width:0.8;" x="394.461811" xlink:href="#mef5114e006" y="307.584"/>
      </g>
     </g>
     <g id="text_9">
      <!-- 200 -->
      <g transform="translate(384.918061 322.182437)scale(0.1 -0.1)">
       <use xlink:href="#DejaVuSans-50"/>
       <use x="63.623047" xlink:href="#DejaVuSans-48"/>
       <use x="127.246094" xlink:href="#DejaVuSans-48"/>
      </g>
     </g>
    </g>
    <g id="text_10">
     <!-- x (mm) -->
     <defs>
      <path d="M 54.890625 54.6875 
L 35.109375 28.078125 
L 55.90625 0 
L 45.3125 0 
L 29.390625 21.484375 
L 13.484375 0 
L 2.875 0 
L 24.125 28.609375 
L 4.6875 54.6875 
L 15.28125 54.6875 
L 29.78125 35.203125 
L 44.28125 54.6875 
z
" id="DejaVuSans-120"/>
      <path id="DejaVuSans-32"/>
      <path d="M 31 75.875 
Q 24.46875 64.65625 21.28125 53.65625 
Q 18.109375 42.671875 18.109375 31.390625 
Q 18.109375 20.125 21.3125 9.0625 
Q 24.515625 -2 31 -13.1875 
L 23.1875 -13.1875 
Q 15.875 -1.703125 12.234375 9.375 
Q 8.59375 20.453125 8.59375 31.390625 
Q 8.59375 42.28125 12.203125 53.3125 
Q 15.828125 64.359375 23.1875 75.875 
z
" id="DejaVuSans-40"/>
      <path d="M 52 44.1875 
Q 55.375 50.25 60.0625 53.125 
Q 64.75 56 71.09375 56 
Q 79.640625 56 84.28125 50.015625 
Q 88.921875 44.046875 88.921875 33.015625 
L 88.921875 0 
L 79.890625 0 
L 79.890625 32.71875 
Q 79.890625 40.578125 77.09375 44.375 
Q 74.3125 48.1875 68.609375 48.1875 
Q 61.625 48.1875 57.5625 43.546875 
Q 53.515625 38.921875 53.515625 30.90625 
L 53.515625 0 
L 44.484375 0 
L 44.484375 32.71875 
Q 44.484375 40.625 41.703125 44.40625 
Q 38.921875 48.1875 33.109375 48.1875 
Q 26.21875 48.1875 22.15625 43.53125 
Q 18.109375 38.875 18.109375 30.90625 
L 18.109375 0 
L 9.078125 0 
L 9.078125 54.6875 
L 18.109375 54.6875 
L 18.109375 46.1875 
Q 21.1875 51.21875 25.484375 53.609375 
Q 29.78125 56 35.6875 56 
Q 41.65625 56 45.828125 52.96875 
Q 50 49.953125 52 44.1875 
z
" id="DejaVuSans-109"/>
      <path d="M 8.015625 75.875 
L 15.828125 75.875 
Q 23.140625 64.359375 26.78125 53.3125 
Q 30.421875 42.28125 30.421875 31.390625 
Q 30.421875 20.453125 26.78125 9.375 
Q 23.140625 -1.703125 15.828125 -13.1875 
L 8.015625 -13.1875 
Q 14.5 -2 17.703125 9.0625 
Q 20.90625 20.125 20.90625 31.390625 
Q 20.90625 42.671875 17.703125 53.65625 
Q 14.5 64.65625 8.015625 75.875 
z
" id="DejaVuSans-41"/>
     </defs>
     <g transform="translate(217.969375 335.860562)scale(0.1 -0.1)">
      <use xlink:href="#DejaVuSans-120"/>
      <use x="59.179688" xlink:href="#DejaVuSans-32"/>
      <use x="90.966797" xlink:href="#DejaVuSans-40"/>
      <use x="129.980469" xlink:href="#DejaVuSans-109"/>
      <use x="227.392578" xlink:href="#DejaVuSans-109"/>
      <use x="324.804688" xlink:href="#DejaVuSans-41"/>
     </g>
    </g>
   </g>
   <g id="matplotlib.axis_2">
    <g id="ytick_1">
     <g id="line2d_19">
      <path clip-path="url(#p34143d6d51)" d="M 57.6 277.095004 
L 414.72 277.095004 
" style="fill:none;stroke:#b0b0b0;stroke-linecap:square;stroke-width:0.8;"/>
     </g>
     <g id="line2d_20">
      <defs>
       <path d="M 0 0 
L -3.5 0 
" id="m1d0b03af5f" style="stroke:#000000;stroke-width:0.8;"/>
      </defs>
      <g>
       <use style="stroke:#000000;stroke-width:0.8;" x="57.6" xlink:href="#m1d0b03af5f" y="277.095004"/>
      </g>
     </g>
     <g id="text_11">
      <!-- 500 -->
      <g transform="translate(31.5125 280.894222)scale(0.1 -0.1)">
       <use xlink:href="#DejaVuSans-53"/>
       <use x="63.623047" xlink:href="#DejaVuSans-48"/>
       <use x="127.246094" xlink:href="#DejaVuSans-48"/>
      </g>
     </g>
    </g>
    <g id="ytick_2">
     <g id="line2d_21">
      <path clip-path="url(#p34143d6d51)" d="M 57.6 221.472077 
L 414.72 221.472077 
" style="fill:none;stroke:#b0b0b0;stroke-linecap:square;stroke-width:0.8;"/>
     </g>
     <g id="line2d_22">
      <g>
       <use style="stroke:#000000;stroke-width:0.8;" x="57.6" xlink:href="#m1d0b03af5f" y="221.472077"/>
      </g>
     </g>
     <g id="text_12">
      <!-- 550 -->
      <g transform="translate(31.5125 225.271295)scale(0.1 -0.1)">
       <use xlink:href="#DejaVuSans-53"/>
       <use x="63.623047" xlink:href="#DejaVuSans-53"/>
       <use x="127.246094" xlink:href="#DejaVuSans-48"/>
      </g>
     </g>
    </g>
    <g id="ytick_3">
     <g id="line2d_23">
      <path clip-path="url(#p34143d6d51)" d="M 57.6 165.84915 
L 414.72 165.84915 
" style="fill:none;stroke:#b0b0b0;stroke-linecap:square;stroke-width:0.8;"/>
     </g>
     <g id="line2d_24">
      <g>
       <use style="stroke:#000000;stroke-width:0.8;" x="57.6" xlink:href="#m1d0b03af5f" y="165.84915"/>
      </g>
     </g>
     <g id="text_13">
      <!-- 600 -->
      <defs>
       <path d="M 33.015625 40.375 
Q 26.375 40.375 22.484375 35.828125 
Q 18.609375 31.296875 18.609375 23.390625 
Q 18.609375 15.53125 22.484375 10.953125 
Q 26.375 6.390625 33.015625 6.390625 
Q 39.65625 6.390625 43.53125 10.953125 
Q 47.40625 15.53125 47.40625 23.390625 
Q 47.40625 31.296875 43.53125 35.828125 
Q 39.65625 40.375 33.015625 40.375 
z
M 52.59375 71.296875 
L 52.59375 62.3125 
Q 48.875 64.0625 45.09375 64.984375 
Q 41.3125 65.921875 37.59375 65.921875 
Q 27.828125 65.921875 22.671875 59.328125 
Q 17.53125 52.734375 16.796875 39.40625 
Q 19.671875 43.65625 24.015625 45.921875 
Q 28.375 48.1875 33.59375 48.1875 
Q 44.578125 48.1875 50.953125 41.515625 
Q 57.328125 34.859375 57.328125 23.390625 
Q 57.328125 12.15625 50.6875 5.359375 
Q 44.046875 -1.421875 33.015625 -1.421875 
Q 20.359375 -1.421875 13.671875 8.265625 
Q 6.984375 17.96875 6.984375 36.375 
Q 6.984375 53.65625 15.1875 63.9375 
Q 23.390625 74.21875 37.203125 74.21875 
Q 40.921875 74.21875 44.703125 73.484375 
Q 48.484375 72.75 52.59375 71.296875 
z
" id="DejaVuSans-54"/>
      </defs>
      <g transform="translate(31.5125 169.648369)scale(0.1 -0.1)">
       <use xlink:href="#DejaVuSans-54"/>
       <use x="63.623047" xlink:href="#DejaVuSans-48"/>
       <use x="127.246094" xlink:href="#DejaVuSans-48"/>
      </g>
     </g>
    </g>
    <g id="ytick_4">
     <g id="line2d_25">
      <path clip-path="url(#p34143d6d51)" d="M 57.6 110.226223 
L 414.72 110.226223 
" style="fill:none;stroke:#b0b0b0;stroke-linecap:square;stroke-width:0.8;"/>
     </g>
     <g id="line2d_26">
      <g>
       <use style="stroke:#000000;stroke-width:0.8;" x="57.6" xlink:href="#m1d0b03af5f" y="110.226223"/>
      </g>
     </g>
     <g id="text_14">
      <!-- 650 -->
      <g transform="translate(31.5125 114.025442)scale(0.1 -0.1)">
       <use xlink:href="#DejaVuSans-54"/>
       <use x="63.623047" xlink:href="#DejaVuSans-53"/>
       <use x="127.246094" xlink:href="#DejaVuSans-48"/>
      </g>
     </g>
    </g>
    <g id="ytick_5">
     <g id="line2d_27">
      <path clip-path="url(#p34143d6d51)" d="M 57.6 54.603296 
L 414.72 54.603296 
" style="fill:none;stroke:#b0b0b0;stroke-linecap:square;stroke-width:0.8;"/>
     </g>
     <g id="line2d_28">
      <g>
       <use style="stroke:#000000;stroke-width:0.8;" x="57.6" xlink:href="#m1d0b03af5f" y="54.603296"/>
      </g>
     </g>
     <g id="text_15">
      <!-- 700 -->
      <g transform="translate(31.5125 58.402515)scale(0.1 -0.1)">
       <use xlink:href="#DejaVuSans-55"/>
       <use x="63.623047" xlink:href="#DejaVuSans-48"/>
       <use x="127.246094" xlink:href="#DejaVuSans-48"/>
      </g>
     </g>
    </g>
    <g id="text_16">
     <!-- y (mm) -->
     <defs>
      <path d="M 32.171875 -5.078125 
Q 28.375 -14.84375 24.75 -17.8125 
Q 21.140625 -20.796875 15.09375 -20.796875 
L 7.90625 -20.796875 
L 7.90625 -13.28125 
L 13.1875 -13.28125 
Q 16.890625 -13.28125 18.9375 -11.515625 
Q 21 -9.765625 23.484375 -3.21875 
L 25.09375 0.875 
L 2.984375 54.6875 
L 12.5 54.6875 
L 29.59375 11.921875 
L 46.6875 54.6875 
L 56.203125 54.6875 
z
" id="DejaVuSans-121"/>
     </defs>
     <g transform="translate(25.432812 192.718625)rotate(-90)scale(0.1 -0.1)">
      <use xlink:href="#DejaVuSans-121"/>
      <use x="59.179688" xlink:href="#DejaVuSans-32"/>
      <use x="90.966797" xlink:href="#DejaVuSans-40"/>
      <use x="129.980469" xlink:href="#DejaVuSans-109"/>
      <use x="227.392578" xlink:href="#DejaVuSans-109"/>
      <use x="324.804688" xlink:href="#DejaVuSans-41"/>
     </g>
    </g>
   </g>
   <g id="line2d_29">
    <path clip-path="url(#p34143d6d51)" d="M 394.461811 165.84915 
L 394.352497 170.7301 
L 393.993464 175.605283 
L 393.385165 180.468551 
L 392.528366 185.313774 
L 391.424148 190.134845 
L 390.073902 194.925686 
L 388.673708 199.103549 
L 387.028327 203.2456 
L 385.139036 207.337267 
L 383.009025 211.371642 
L 380.641889 215.341914 
L 378.041625 219.241379 
L 375.212623 223.063455 
L 372.176226 226.797082 
L 368.059261 231.500038 
L 363.713673 236.102953 
L 359.144507 240.600482 
L 354.35707 244.987402 
L 349.356922 249.258618 
L 344.724697 252.950774 
L 339.903127 256.52512 
L 334.898522 259.976285 
L 329.717418 263.299759 
L 324.366581 266.491204 
L 318.853 269.546451 
L 312.475144 272.818022 
L 305.938083 275.930697 
L 299.249152 278.88404 
L 292.41642 281.674489 
L 285.448127 284.29868 
L 278.35178 286.753747 
L 272.713565 288.498243 
L 266.960311 290.051532 
L 261.105486 291.409976 
L 255.162794 292.570395 
L 249.146146 293.530075 
L 243.069625 294.286767 
L 236.947455 294.838701 
L 229.917759 295.245393 
L 222.86964 295.446894 
L 215.815541 295.442848 
L 208.767912 295.233263 
L 201.739195 294.818507 
L 194.741798 294.199315 
L 188.664293 293.477409 
L 182.651745 292.537422 
L 176.719544 291.377518 
L 170.884395 290.000963 
L 165.162728 288.411632 
L 159.570656 286.614001 
L 154.123924 284.613132 
L 148.827202 282.418926 
L 142.9316 279.730097 
L 137.213373 276.862864 
L 131.683731 273.822847 
L 126.353517 270.616008 
L 121.23318 267.248633 
L 116.336266 263.730279 
L 111.668584 260.080299 
L 107.221361 256.300184 
L 103.00213 252.396337 
L 99.018037 248.37537 
L 95.27583 244.244092 
L 92.204813 240.544233 
L 89.327151 236.748144 
L 86.687009 232.866262 
L 84.292476 228.908483 
L 82.148072 224.88228 
L 80.257847 220.795256 
L 78.62537 216.655127 
L 77.4336 213.070102 
L 76.283948 208.856645 
L 75.366346 204.618864 
L 74.676571 200.360343 
L 74.215576 196.086974 
L 73.984001 191.804669 
L 73.982164 187.519352 
L 74.21007 183.236952 
L 74.66612 178.962985 
L 75.333916 174.701963 
L 76.208243 170.458963 
L 77.28811 166.238799 
L 78.572292 162.046262 
L 80.059331 157.88611 
L 81.747538 153.763065 
L 83.635705 149.685452 
L 85.464924 146.248391 
L 87.514196 142.8716 
L 89.779409 139.561855 
L 92.256019 136.325796 
L 94.939057 133.169917 
L 97.823139 130.100549 
L 100.902478 127.123852 
L 104.170896 124.245796 
L 108.203489 121.012814 
L 112.448182 117.913233 
L 116.895816 114.953742 
L 121.536793 112.140728 
L 126.361097 109.480262 
L 131.358317 106.978084 
L 136.517669 104.639595 
L 142.600957 102.142851 
L 149.602717 99.522517 
L 156.755489 97.106399 
L 164.046901 94.898675 
L 171.464341 92.903165 
L 178.994796 91.125227 
L 184.943206 89.952436 
L 190.972324 88.998345 
L 197.065452 88.265595 
L 203.205714 87.756217 
L 209.376105 87.471621 
L 215.559535 87.412595 
L 221.739513 87.57933 
L 228.78522 88.007628 
L 235.794905 88.661123 
L 242.753619 89.538424 
L 249.646519 90.637657 
L 256.458903 91.95648 
L 263.176242 93.492078 
L 269.747961 95.233941 
L 276.187825 97.189267 
L 282.486236 99.354983 
L 288.628919 101.72618 
L 294.601953 104.297485 
L 300.391799 107.063069 
L 305.308333 109.642582 
L 310.745353 112.762617 
L 315.327287 115.633564 
L 319.737546 118.631088 
L 323.968868 121.750254 
L 328.014287 124.985926 
L 331.867142 128.332778 
L 335.517296 131.785691 
L 338.941434 135.347142 
L 342.13066 139.012039 
L 345.078491 142.772932 
L 347.778934 146.622176 
L 350.226499 150.551946 
L 352.119357 153.97836 
L 353.820626 157.45444 
L 355.302051 160.986634 
L 356.536777 164.564178 
L 357.521944 168.178786 
L 358.25527 171.822087 
L 358.735058 175.485642 
L 358.960196 179.160967 
L 358.930163 182.83955 
L 358.645028 186.51287 
L 358.208072 189.55888 
L 357.573304 192.586942 
L 356.740964 195.591886 
L 355.712769 198.567512 
L 354.490841 201.507681 
L 353.0777 204.406326 
L 351.476262 207.257468 
L 349.689832 210.055223 
L 347.30714 213.333942 
L 344.669131 216.519268 
L 341.345963 220.14497 
L 337.822519 223.678511 
L 334.104102 227.114571 
L 330.196312 230.447975 
L 326.105033 233.673705 
L 321.836425 236.786904 
L 316.751252 240.199681 
L 312.770989 242.618211 
L 308.616242 244.891158 
L 304.298064 247.012473 
L 299.827945 248.976514 
L 295.217778 250.778054 
L 290.479827 252.4123 
L 285.6267 253.874905 
L 280.671306 255.161977 
L 274.772005 256.45696 
L 268.789109 257.558517 
L 262.738505 258.464817 
L 256.633429 259.173878 
L 250.487235 259.68415 
L 244.313369 259.994516 
L 238.125335 260.104296 
L 231.083247 259.999383 
L 223.187409 259.642376 
L 216.194899 259.116124 
L 209.238791 258.394138 
L 202.330467 257.477597 
L 195.481231 256.368002 
L 188.689458 255.060202 
L 181.98186 253.537595 
L 175.38235 251.802535 
L 168.904906 249.858695 
L 162.563244 247.710192 
L 156.370796 245.361576 
L 150.340052 242.819047 
L 144.468213 240.104173 
L 138.75965 237.226611 
L 133.223726 234.19108 
L 127.86952 231.002559 
L 122.705811 227.666276 
L 117.739573 224.186617 
L 113.573073 221.011416 
L 109.604346 217.716558 
L 105.840527 214.307965 
L 102.288382 210.791766 
L 98.954296 207.174281 
L 95.844262 203.462012 
L 92.963871 199.661633 
L 89.924793 195.23964 
L 87.105151 190.748243 
L 84.508232 186.192682 
L 82.137065 181.578269 
L 79.994416 176.910386 
L 78.082782 172.194475 
L 76.629422 168.028792 
L 75.629421 164.42131 
L 74.864972 160.786215 
L 74.33763 157.130903 
L 74.048468 153.462814 
L 73.998075 149.789411 
L 74.186553 146.118169 
L 74.613518 142.456559 
L 75.278124 138.814081 
L 76.18259 135.198614 
L 77.326174 131.615884 
L 78.706449 128.073497 
L 80.320486 124.578972 
L 82.164858 121.139728 
L 84.235648 117.763066 
L 86.528463 114.456154 
L 89.038323 111.226149 
L 92.189718 107.546424 
L 95.547326 103.955531 
L 99.105949 100.459026 
L 102.860081 97.062323 
L 106.803911 93.770677 
L 110.931335 90.589183 
L 115.235965 87.522765 
L 120.365694 84.162883 
L 125.705972 80.964749 
L 131.24621 77.934704 
L 136.975421 75.078756 
L 142.882246 72.402569 
L 148.95497 69.91145 
L 155.960458 67.317086 
L 163.099027 64.901598 
L 170.35837 62.666007 
L 177.729067 60.613212 
L 185.201556 58.745877 
L 192.76509 57.068676 
L 198.725186 55.960563 
L 204.757968 55.06142 
L 210.848221 54.373516 
L 216.980583 53.898586 
L 223.139585 53.637828 
L 229.309693 53.5919 
L 235.477628 53.761015 
L 243.405487 54.211495 
L 251.303637 54.866606 
L 259.161105 55.725438 
L 266.966975 56.786798 
L 274.710401 58.049211 
L 282.36437 59.526345 
L 288.215258 60.892387 
L 293.961565 62.457528 
L 299.589221 64.217935 
L 305.084446 66.169299 
L 310.433785 68.30684 
L 315.62414 70.625325 
L 320.651315 73.110169 
L 326.945396 76.463022 
L 333.054114 79.976977 
L 338.968902 83.647107 
L 344.681468 87.468266 
L 350.183803 91.435096 
L 355.471067 95.542245 
L 360.537424 99.781498 
L 365.375908 104.146966 
L 369.979991 108.632758 
L 373.870697 112.716252 
L 377.566677 116.885148 
L 380.591408 120.61378 
L 383.382781 124.428984 
L 385.935656 128.323735 
L 388.245333 132.290864 
L 390.307561 136.323067 
L 392.118544 140.412922 
L 393.674947 144.5529 
L 394.996397 148.736127 
L 396.107924 152.948626 
L 397.008191 157.18533 
L 397.696115 161.441141 
L 398.170869 165.710941 
L 398.431881 169.989593 
L 398.478839 174.271951 
L 398.332184 177.939348 
L 397.970602 181.599185 
L 397.393038 185.245663 
L 396.600462 188.872652 
L 395.594207 192.474054 
L 394.375966 196.043814 
L 392.947785 199.575931 
L 391.312066 203.064466 
L 389.161481 207.074329 
L 386.160307 212.164433 
L 382.918487 217.183024 
L 379.439554 222.124629 
L 375.727304 226.983859 
L 371.785784 231.755416 
L 368.534723 235.400236 
L 365.076412 238.953839 
L 361.415927 242.408628 
L 357.559129 245.759071 
L 353.512193 248.999804 
L 349.281597 252.125638 
L 344.874116 255.131568 
L 340.295628 258.009576 
L 335.543056 260.747457 
L 330.623833 263.339835 
L 325.547211 265.781834 
L 320.322734 268.068861 
L 314.960229 270.196616 
L 309.469781 272.161098 
L 303.864056 273.955547 
L 298.145912 275.564798 
L 292.324217 276.984197 
L 286.412062 278.210553 
L 280.422743 279.241107 
L 274.369726 280.073543 
L 268.266624 280.705989 
L 262.116905 281.140314 
L 255.048598 281.432088 
L 247.968785 281.514539 
L 240.890342 281.387517 
L 233.826144 281.051254 
L 226.789039 280.50636 
L 219.794247 279.75412 
L 211.998252 278.695569 
L 204.264916 277.435116 
L 196.605101 275.974532 
L 189.029567 274.315867 
L 181.548956 272.461453 
L 174.99887 270.641793 
L 169.395098 268.852286 
L 163.929358 266.867959 
L 158.615714 264.69392 
L 153.467839 262.335762 
L 148.498979 259.799554 
L 143.721921 257.091822 
L 139.145164 254.222564 
L 134.113265 250.797269 
L 129.285339 247.233513 
L 124.669297 243.537133 
L 120.272704 239.714189 
L 116.102765 235.770944 
L 112.165817 231.71333 
L 108.454512 227.549389 
L 104.969322 223.292466 
L 101.715079 218.948466 
L 98.6963 214.523415 
L 95.917171 210.023453 
L 93.381549 205.454822 
L 91.382839 201.407798 
L 89.623556 197.308622 
L 88.10716 193.163013 
L 86.836181 188.977892 
L 85.812743 184.760247 
L 85.038553 180.51712 
L 84.514904 176.255596 
L 84.242746 171.973881 
L 84.225494 167.684463 
L 84.46365 163.398211 
L 84.956808 159.122439 
L 85.704125 154.864445 
L 86.704326 150.631494 
L 87.955704 146.43081 
L 89.459709 142.270495 
L 90.965637 138.745749 
L 92.672162 135.265267 
L 94.576591 131.834539 
L 96.67592 128.458978 
L 98.966837 125.143908 
L 101.876881 121.359754 
L 105.036518 117.673176 
L 108.435763 114.081668 
L 112.032559 110.580294 
L 115.816738 107.175281 
L 119.782939 103.87145 
L 124.531408 100.225538 
L 129.50149 96.724635 
L 134.683993 93.375217 
L 140.018949 90.194689 
L 145.517108 87.150838 
L 151.88855 83.894881 
L 158.446667 80.822445 
L 165.180482 77.938674 
L 172.082371 75.248675 
L 177.596235 73.334944 
L 183.237256 71.608719 
L 188.992192 70.074053 
L 194.847533 68.734549 
L 200.789535 67.593351 
L 206.804247 66.653139 
L 212.880131 65.915844 
L 219.891009 65.297751 
L 226.935579 64.905099 
L 233.998782 64.738727 
L 241.065523 64.798991 
L 248.120696 65.085763 
L 255.14922 65.598429 
L 256.025163 65.678346 
L 256.025163 65.678346 
" style="fill:none;stroke:#1f77b4;stroke-linecap:square;stroke-width:1.5;"/>
   </g>
   <g id="line2d_30">
    <path clip-path="url(#p34143d6d51)" d="M 394.461811 165.84915 
L 394.352349 170.742901 
L 393.992939 175.630821 
L 393.383696 180.507644 
L 392.525187 185.365934 
L 391.418257 190.200727 
L 390.064575 195.004456 
L 388.667371 199.17338 
L 387.02717 203.304549 
L 385.143961 207.384856 
L 383.020922 211.406862 
L 380.661647 215.364529 
L 378.069016 219.254061 
L 375.249413 223.063388 
L 372.215487 226.794874 
L 368.095916 231.501306 
L 363.748136 236.106557 
L 359.175872 240.607822 
L 354.385315 244.998062 
L 349.382114 249.27164 
L 344.750898 252.963637 
L 339.931163 256.537289 
L 334.926968 259.990764 
L 329.746929 263.31298 
L 324.396929 266.504916 
L 318.882298 269.563797 
L 312.502232 272.833448 
L 305.957024 275.950374 
L 299.260443 278.907491 
L 292.420461 281.699486 
L 284.662324 284.606137 
L 277.544946 287.042459 
L 271.891248 288.757173 
L 266.123366 290.282167 
L 260.255152 291.612698 
L 254.305058 292.739528 
L 248.281727 293.666701 
L 242.196955 294.394691 
L 235.191431 294.975137 
L 228.153088 295.331146 
L 221.099579 295.482432 
L 214.037265 295.433201 
L 206.98949 295.174506 
L 199.967752 294.706262 
L 192.975725 294.037817 
L 186.905519 293.255346 
L 180.900535 292.253244 
L 174.982414 291.030196 
L 169.16765 289.589838 
L 163.473459 287.937163 
L 157.912423 286.077588 
L 152.502044 284.015647 
L 147.241799 281.773625 
L 141.391088 279.038699 
L 135.719891 276.127267 
L 130.239521 273.044895 
L 124.962402 269.797011 
L 120.517948 266.824771 
L 115.644916 263.285093 
L 110.990745 259.606555 
L 106.558889 255.798051 
L 102.357382 251.867061 
L 98.391655 247.818928 
L 94.668463 243.661098 
L 91.615988 239.938942 
L 88.776153 236.13648 
L 86.177375 232.252294 
L 83.824252 228.293336 
L 81.721489 224.26734 
L 79.872611 220.181844 
L 78.281292 216.044261 
L 77.124799 212.46257 
L 76.012067 208.2507 
L 75.12837 204.012962 
L 74.472508 199.755552 
L 74.045368 195.484609 
L 73.847417 191.206146 
L 73.87859 186.923976 
L 74.139164 182.645421 
L 74.626235 178.37644 
L 75.322969 174.121521 
L 76.225897 169.88529 
L 77.333916 165.672528 
L 78.646046 161.488082 
L 80.160334 157.336675 
L 81.875249 153.223078 
L 83.795665 149.153346 
L 85.664461 145.719764 
L 87.753253 142.347665 
L 90.057874 139.04361 
L 92.573783 135.814313 
L 95.295228 132.666444 
L 98.216403 129.606421 
L 101.333554 126.639936 
L 104.637863 123.773904 
L 108.708768 120.554054 
L 112.990963 117.46844 
L 117.474876 114.52475 
L 122.151127 111.728671 
L 127.009806 109.085518 
L 132.039031 106.60277 
L 137.229719 104.284099 
L 144.090076 101.514672 
L 151.11129 98.9454 
L 158.275944 96.581614 
L 165.580662 94.42494 
L 173.006842 92.481588 
L 179.705133 90.940833 
L 185.653606 89.80126 
L 191.690398 88.87948 
L 197.789454 88.178681 
L 203.91907 87.70361 
L 210.076995 87.45217 
L 216.251533 87.425778 
L 222.431284 87.623486 
L 229.459482 88.079599 
L 236.437366 88.760575 
L 243.372203 89.665033 
L 250.235198 90.789898 
L 257.018526 92.134001 
L 263.70644 93.693226 
L 270.288529 95.468283 
L 276.738255 97.458742 
L 283.029139 99.658216 
L 289.186781 102.066042 
L 295.153112 104.670803 
L 300.942132 107.471543 
L 305.851122 110.077033 
L 310.599001 112.816403 
L 315.817579 116.109085 
L 320.205295 119.125946 
L 324.414346 122.26451 
L 328.435342 125.518093 
L 332.263075 128.880732 
L 335.885476 132.353149 
L 339.282082 135.935406 
L 342.428492 139.613213 
L 345.352916 143.399089 
L 348.008327 147.257642 
L 350.430793 151.208376 
L 352.292692 154.645895 
L 353.965189 158.136707 
L 355.400803 161.66904 
L 356.586978 165.245417 
L 357.527548 168.85634 
L 358.117695 171.889256 
L 358.5384 174.939638 
L 358.807307 178.610658 
L 358.830016 181.667171 
L 358.627818 185.342798 
L 358.167735 188.997939 
L 357.58028 192.030503 
L 356.600182 195.637601 
L 355.338514 199.204104 
L 354.075501 202.140559 
L 352.625393 205.024721 
L 350.988717 207.861864 
L 348.774115 211.201182 
L 346.299661 214.451756 
L 344.057765 217.08234 
L 340.708969 220.676505 
L 336.641835 224.674079 
L 332.881907 228.072361 
L 328.924354 231.362251 
L 324.182276 234.988445 
L 319.850216 238.033088 
L 315.336384 240.958822 
L 311.301939 243.330395 
L 307.082037 245.548613 
L 303.439382 247.276253 
L 298.937002 249.209492 
L 294.306251 250.984845 
L 289.543829 252.589289 
L 283.848321 254.241329 
L 278.864485 255.466969 
L 272.102376 256.858709 
L 265.240599 257.995312 
L 259.173793 258.787091 
L 252.180943 259.44985 
L 246.027148 259.81448 
L 238.973193 259.995927 
L 231.921633 259.917816 
L 223.99642 259.588486 
L 216.982995 259.080609 
L 208.259866 258.175509 
L 200.473482 257.10158 
L 192.767763 255.783727 
L 185.997882 254.398379 
L 179.330172 252.797232 
L 172.777505 250.980486 
L 166.350958 248.959806 
L 160.064528 246.735305 
L 153.932598 244.314027 
L 147.963969 241.703165 
L 142.156329 238.925834 
L 136.512768 235.988087 
L 131.046333 232.894733 
L 125.765021 229.650258 
L 120.677405 226.259611 
L 115.797131 222.726053 
L 111.726857 219.506109 
L 107.855854 216.17 
L 104.193168 212.722677 
L 100.743923 209.170741 
L 97.514212 205.520948 
L 94.51174 201.779724 
L 91.736279 197.955229 
L 88.782513 193.510166 
L 86.050074 188.998061 
L 83.541683 184.42376 
L 81.259797 179.792434 
L 79.207177 175.109781 
L 77.386289 170.381266 
L 76.232392 166.798847 
L 75.312797 163.184157 
L 74.629008 159.544393 
L 74.18255 155.88707 
L 73.974321 152.219604 
L 74.004262 148.549003 
L 74.272649 144.883009 
L 74.77935 141.229146 
L 75.524322 137.594997 
L 76.509391 133.98843 
L 77.732704 130.417115 
L 79.191563 126.888732 
L 80.882157 123.410817 
L 82.803433 119.990354 
L 84.949778 116.634942 
L 87.315645 113.351821 
L 89.893366 110.145777 
L 93.104979 106.488937 
L 96.524274 102.922378 
L 100.142199 99.451875 
L 103.952705 96.08291 
L 107.951904 92.820546 
L 112.132991 89.669589 
L 116.488215 86.635081 
L 121.674674 83.314555 
L 127.068339 80.158169 
L 132.657083 77.171506 
L 138.430835 74.360144 
L 144.381201 71.729561 
L 150.496741 69.286038 
L 157.529549 66.735311 
L 164.693717 64.361599 
L 171.974646 62.168949 
L 179.361002 60.160499 
L 186.852246 58.336847 
L 194.436916 56.712364 
L 200.424511 55.663746 
L 206.47612 54.825398 
L 212.587742 54.198306 
L 218.737966 53.785564 
L 224.916307 53.587013 
L 231.086462 53.603966 
L 237.250888 53.829945 
L 245.161283 54.326264 
L 253.030972 55.02643 
L 260.864215 55.929543 
L 268.644112 57.034715 
L 276.359138 58.340122 
L 283.142466 59.693206 
L 288.976591 61.088795 
L 294.702194 62.682299 
L 300.312667 64.471468 
L 305.783592 66.450366 
L 311.116978 68.617758 
L 316.280061 70.962863 
L 321.998013 73.835516 
L 328.244997 77.224394 
L 334.312016 80.77828 
L 340.181773 84.484827 
L 345.84845 88.341572 
L 350.712863 91.894264 
L 355.979146 96.020618 
L 360.468598 99.794091 
L 365.303668 104.161508 
L 369.906438 108.648925 
L 374.26373 113.252182 
L 377.929783 117.431915 
L 380.928426 121.180929 
L 383.694958 125.018028 
L 386.20328 128.918248 
L 388.490605 132.909132 
L 390.244025 136.377227 
L 392.05778 140.474722 
L 393.412023 144.026737 
L 394.762333 148.204924 
L 395.900678 152.404682 
L 396.832131 156.643553 
L 397.547404 160.898188 
L 398.04879 165.172142 
L 398.346545 169.457465 
L 398.425301 173.737595 
L 398.30684 177.418337 
L 397.982156 181.085108 
L 397.43703 184.739315 
L 396.688398 188.373985 
L 395.71802 191.990443 
L 394.528539 195.561466 
L 393.130208 199.101569 
L 391.525965 202.603496 
L 389.718685 206.045443 
L 386.764651 211.167705 
L 383.201944 216.767005 
L 380.144987 221.189622 
L 376.897503 225.538284 
L 373.466691 229.81755 
L 369.385484 234.548505 
L 365.995618 238.13194 
L 362.39676 241.609296 
L 358.588953 244.98254 
L 354.010057 248.709499 
L 349.808834 251.846605 
L 345.42351 254.865499 
L 340.207923 258.163272 
L 336.144703 260.511414 
L 330.5377 263.487198 
L 324.731864 266.268099 
L 318.721552 268.819798 
L 312.545193 271.185505 
L 306.208639 273.330577 
L 300.534359 275.022477 
L 294.751902 276.516862 
L 288.874997 277.833482 
L 282.912016 278.949336 
L 276.014571 279.975398 
L 269.049495 280.749494 
L 262.911891 281.208084 
L 255.868882 281.525698 
L 248.819349 281.632306 
L 241.770433 281.521493 
L 233.85114 281.16336 
L 225.96899 280.528278 
L 219.864202 279.868474 
L 210.356399 278.544301 
L 202.642002 277.243347 
L 195.008198 275.735495 
L 187.455983 274.034603 
L 180.003659 272.138758 
L 173.481587 270.266143 
L 167.911421 268.418557 
L 162.483749 266.377511 
L 157.210879 264.147976 
L 152.109114 261.73589 
L 147.191942 259.147025 
L 142.467881 256.388167 
L 137.940647 253.477282 
L 132.957352 250.013301 
L 128.178915 246.411065 
L 123.614747 242.677918 
L 119.272482 238.820076 
L 115.15971 234.843641 
L 111.279455 230.75459 
L 107.627076 226.565941 
L 104.202393 222.285876 
L 101.010162 217.920311 
L 98.054652 213.476233 
L 95.33866 208.957987 
L 92.866578 204.372719 
L 90.935678 200.304471 
L 89.246186 196.185421 
L 87.799456 192.020194 
L 86.600929 187.81957 
L 85.649633 183.587588 
L 84.948296 179.331977 
L 84.497188 175.057999 
L 84.300076 170.774929 
L 84.358373 166.492 
L 84.671218 162.213972 
L 85.238989 157.949259 
L 86.060163 153.704675 
L 87.133781 149.486802 
L 88.457569 145.303446 
L 89.795958 141.751145 
L 91.334989 138.239044 
L 93.075803 134.771326 
L 95.012821 131.354378 
L 97.144539 127.993624 
L 99.869088 124.151471 
L 102.408582 120.930478 
L 105.602222 117.264074 
L 109.021165 113.697902 
L 112.63561 110.223873 
L 116.430994 106.84723 
L 120.98761 103.112513 
L 125.769992 99.517544 
L 130.773811 96.068373 
L 135.990477 92.770772 
L 141.381815 89.61634 
L 146.938485 86.599574 
L 153.368581 83.376383 
L 159.984625 80.33734 
L 166.774148 77.488272 
L 172.950246 75.123752 
L 178.494429 73.234093 
L 184.166077 71.533302 
L 189.945903 70.025991 
L 195.820723 68.713863 
L 201.789625 67.599864 
L 207.827232 66.687952 
L 213.920389 65.978204 
L 220.914169 65.391198 
L 227.944973 65.029586 
L 235.012621 64.892896 
L 242.077706 64.982964 
L 249.111985 65.299562 
L 256.128832 65.841804 
L 256.128832 65.841804 
" style="fill:none;stroke:#ff7f0e;stroke-linecap:square;stroke-width:1.5;"/>
   </g>
   <g id="patch_3">
    <path d="M 57.6 307.584 
L 57.6 41.472 
" style="fill:none;stroke:#000000;stroke-linecap:square;stroke-linejoin:miter;stroke-width:0.8;"/>
   </g>
   <g id="patch_4">
    <path d="M 414.72 307.584 
L 414.72 41.472 
" style="fill:none;stroke:#000000;stroke-linecap:square;stroke-linejoin:miter;stroke-width:0.8;"/>
   </g>
   <g id="patch_5">
    <path d="M 57.6 307.584 
L 414.72 307.584 
" style="fill:none;stroke:#000000;stroke-linecap:square;stroke-linejoin:miter;stroke-width:0.8;"/>
   </g>
   <g id="patch_6">
    <path d="M 57.6 41.472 
L 414.72 41.472 
" style="fill:none;stroke:#000000;stroke-linecap:square;stroke-linejoin:miter;stroke-width:0.8;"/>
   </g>
   <g id="text_17">
    <!-- EKF Localization -->
    <defs>
     <path d="M 9.8125 72.90625 
L 55.90625 72.90625 
L 55.90625 64.59375 
L 19.671875 64.59375 
L 19.671875 43.015625 
L 54.390625 43.015625 
L 54.390625 34.71875 
L 19.671875 34.71875 
L 19.671875 8.296875 
L 56.78125 8.296875 
L 56.78125 0 
L 9.8125 0 
z
" id="DejaVuSans-69"/>
     <path d="M 9.8125 72.90625 
L 19.671875 72.90625 
L 19.671875 42.09375 
L 52.390625 72.90625 
L 65.09375 72.90625 
L 28.90625 38.921875 
L 67.671875 0 
L 54.6875 0 
L 19.671875 35.109375 
L 19.671875 0 
L 9.8125 0 
z
" id="DejaVuSans-75"/>
     <path d="M 9.8125 72.90625 
L 51.703125 72.90625 
L 51.703125 64.59375 
L 19.671875 64.59375 
L 19.671875 43.109375 
L 48.578125 43.109375 
L 48.578125 34.8125 
L 19.671875 34.8125 
L 19.671875 0 
L 9.8125 0 
z
" id="DejaVuSans-70"/>
     <path d="M 9.8125 72.90625 
L 19.671875 72.90625 
L 19.671875 8.296875 
L 55.171875 8.296875 
L 55.171875 0 
L 9.8125 0 
z
" id="DejaVuSans-76"/>
     <path d="M 30.609375 48.390625 
Q 23.390625 48.390625 19.1875 42.75 
Q 14.984375 37.109375 14.984375 27.296875 
Q 14.984375 17.484375 19.15625 11.84375 
Q 23.34375 6.203125 30.609375 6.203125 
Q 37.796875 6.203125 41.984375 11.859375 
Q 46.1875 17.53125 46.1875 27.296875 
Q 46.1875 37.015625 41.984375 42.703125 
Q 37.796875 48.390625 30.609375 48.390625 
z
M 30.609375 56 
Q 42.328125 56 49.015625 48.375 
Q 55.71875 40.765625 55.71875 27.296875 
Q 55.71875 13.875 49.015625 6.21875 
Q 42.328125 -1.421875 30.609375 -1.421875 
Q 18.84375 -1.421875 12.171875 6.21875 
Q 5.515625 13.875 5.515625 27.296875 
Q 5.515625 40.765625 12.171875 48.375 
Q 18.84375 56 30.609375 56 
z
" id="DejaVuSans-111"/>
     <path d="M 48.78125 52.59375 
L 48.78125 44.1875 
Q 44.96875 46.296875 41.140625 47.34375 
Q 37.3125 48.390625 33.40625 48.390625 
Q 24.65625 48.390625 19.8125 42.84375 
Q 14.984375 37.3125 14.984375 27.296875 
Q 14.984375 17.28125 19.8125 11.734375 
Q 24.65625 6.203125 33.40625 6.203125 
Q 37.3125 6.203125 41.140625 7.25 
Q 44.96875 8.296875 48.78125 10.40625 
L 48.78125 2.09375 
Q 45.015625 0.34375 40.984375 -0.53125 
Q 36.96875 -1.421875 32.421875 -1.421875 
Q 20.0625 -1.421875 12.78125 6.34375 
Q 5.515625 14.109375 5.515625 27.296875 
Q 5.515625 40.671875 12.859375 48.328125 
Q 20.21875 56 33.015625 56 
Q 37.15625 56 41.109375 55.140625 
Q 45.0625 54.296875 48.78125 52.59375 
z
" id="DejaVuSans-99"/>
     <path d="M 34.28125 27.484375 
Q 23.390625 27.484375 19.1875 25 
Q 14.984375 22.515625 14.984375 16.5 
Q 14.984375 11.71875 18.140625 8.90625 
Q 21.296875 6.109375 26.703125 6.109375 
Q 34.1875 6.109375 38.703125 11.40625 
Q 43.21875 16.703125 43.21875 25.484375 
L 43.21875 27.484375 
z
M 52.203125 31.203125 
L 52.203125 0 
L 43.21875 0 
L 43.21875 8.296875 
Q 40.140625 3.328125 35.546875 0.953125 
Q 30.953125 -1.421875 24.3125 -1.421875 
Q 15.921875 -1.421875 10.953125 3.296875 
Q 6 8.015625 6 15.921875 
Q 6 25.140625 12.171875 29.828125 
Q 18.359375 34.515625 30.609375 34.515625 
L 43.21875 34.515625 
L 43.21875 35.40625 
Q 43.21875 41.609375 39.140625 45 
Q 35.0625 48.390625 27.6875 48.390625 
Q 23 48.390625 18.546875 47.265625 
Q 14.109375 46.140625 10.015625 43.890625 
L 10.015625 52.203125 
Q 14.9375 54.109375 19.578125 55.046875 
Q 24.21875 56 28.609375 56 
Q 40.484375 56 46.34375 49.84375 
Q 52.203125 43.703125 52.203125 31.203125 
z
" id="DejaVuSans-97"/>
     <path d="M 9.421875 75.984375 
L 18.40625 75.984375 
L 18.40625 0 
L 9.421875 0 
z
" id="DejaVuSans-108"/>
     <path d="M 9.421875 54.6875 
L 18.40625 54.6875 
L 18.40625 0 
L 9.421875 0 
z
M 9.421875 75.984375 
L 18.40625 75.984375 
L 18.40625 64.59375 
L 9.421875 64.59375 
z
" id="DejaVuSans-105"/>
     <path d="M 5.515625 54.6875 
L 48.1875 54.6875 
L 48.1875 46.484375 
L 14.40625 7.171875 
L 48.1875 7.171875 
L 48.1875 0 
L 4.296875 0 
L 4.296875 8.203125 
L 38.09375 47.515625 
L 5.515625 47.515625 
z
" id="DejaVuSans-122"/>
     <path d="M 18.3125 70.21875 
L 18.3125 54.6875 
L 36.8125 54.6875 
L 36.8125 47.703125 
L 18.3125 47.703125 
L 18.3125 18.015625 
Q 18.3125 11.328125 20.140625 9.421875 
Q 21.96875 7.515625 27.59375 7.515625 
L 36.8125 7.515625 
L 36.8125 0 
L 27.59375 0 
Q 17.1875 0 13.234375 3.875 
Q 9.28125 7.765625 9.28125 18.015625 
L 9.28125 47.703125 
L 2.6875 47.703125 
L 2.6875 54.6875 
L 9.28125 54.6875 
L 9.28125 70.21875 
z
" id="DejaVuSans-116"/>
     <path d="M 54.890625 33.015625 
L 54.890625 0 
L 45.90625 0 
L 45.90625 32.71875 
Q 45.90625 40.484375 42.875 44.328125 
Q 39.84375 48.1875 33.796875 48.1875 
Q 26.515625 48.1875 22.3125 43.546875 
Q 18.109375 38.921875 18.109375 30.90625 
L 18.109375 0 
L 9.078125 0 
L 9.078125 54.6875 
L 18.109375 54.6875 
L 18.109375 46.1875 
Q 21.34375 51.125 25.703125 53.5625 
Q 30.078125 56 35.796875 56 
Q 45.21875 56 50.046875 50.171875 
Q 54.890625 44.34375 54.890625 33.015625 
z
" id="DejaVuSans-110"/>
    </defs>
    <g transform="translate(187.434375 35.472)scale(0.12 -0.12)">
     <use xlink:href="#DejaVuSans-69"/>
     <use x="63.183594" xlink:href="#DejaVuSans-75"/>
     <use x="128.759766" xlink:href="#DejaVuSans-70"/>
     <use x="186.279297" xlink:href="#DejaVuSans-32"/>
     <use x="218.066406" xlink:href="#DejaVuSans-76"/>
     <use x="273.763672" xlink:href="#DejaVuSans-111"/>
     <use x="334.945312" xlink:href="#DejaVuSans-99"/>
     <use x="389.925781" xlink:href="#DejaVuSans-97"/>
     <use x="451.205078" xlink:href="#DejaVuSans-108"/>
     <use x="478.988281" xlink:href="#DejaVuSans-105"/>
     <use x="506.771484" xlink:href="#DejaVuSans-122"/>
     <use x="559.261719" xlink:href="#DejaVuSans-97"/>
     <use x="620.541016" xlink:href="#DejaVuSans-116"/>
     <use x="659.75" xlink:href="#DejaVuSans-105"/>
     <use x="687.533203" xlink:href="#DejaVuSans-111"/>
     <use x="748.714844" xlink:href="#DejaVuSans-110"/>
    </g>
   </g>
   <g id="legend_1">
    <g id="patch_7">
     <path d="M 188.800625 190.706125 
L 283.519375 190.706125 
Q 285.519375 190.706125 285.519375 188.706125 
L 285.519375 160.349875 
Q 285.519375 158.349875 283.519375 158.349875 
L 188.800625 158.349875 
Q 186.800625 158.349875 186.800625 160.349875 
L 186.800625 188.706125 
Q 186.800625 190.706125 188.800625 190.706125 
z
" style="fill:#ffffff;opacity:0.8;stroke:#cccccc;stroke-linejoin:miter;"/>
    </g>
    <g id="line2d_31">
     <path d="M 190.800625 166.448312 
L 210.800625 166.448312 
" style="fill:none;stroke:#1f77b4;stroke-linecap:square;stroke-width:1.5;"/>
    </g>
    <g id="line2d_32"/>
    <g id="text_18">
     <!-- car position -->
     <defs>
      <path d="M 41.109375 46.296875 
Q 39.59375 47.171875 37.8125 47.578125 
Q 36.03125 48 33.890625 48 
Q 26.265625 48 22.1875 43.046875 
Q 18.109375 38.09375 18.109375 28.8125 
L 18.109375 0 
L 9.078125 0 
L 9.078125 54.6875 
L 18.109375 54.6875 
L 18.109375 46.1875 
Q 20.953125 51.171875 25.484375 53.578125 
Q 30.03125 56 36.53125 56 
Q 37.453125 56 38.578125 55.875 
Q 39.703125 55.765625 41.0625 55.515625 
z
" id="DejaVuSans-114"/>
      <path d="M 18.109375 8.203125 
L 18.109375 -20.796875 
L 9.078125 -20.796875 
L 9.078125 54.6875 
L 18.109375 54.6875 
L 18.109375 46.390625 
Q 20.953125 51.265625 25.265625 53.625 
Q 29.59375 56 35.59375 56 
Q 45.5625 56 51.78125 48.09375 
Q 58.015625 40.1875 58.015625 27.296875 
Q 58.015625 14.40625 51.78125 6.484375 
Q 45.5625 -1.421875 35.59375 -1.421875 
Q 29.59375 -1.421875 25.265625 0.953125 
Q 20.953125 3.328125 18.109375 8.203125 
z
M 48.6875 27.296875 
Q 48.6875 37.203125 44.609375 42.84375 
Q 40.53125 48.484375 33.40625 48.484375 
Q 26.265625 48.484375 22.1875 42.84375 
Q 18.109375 37.203125 18.109375 27.296875 
Q 18.109375 17.390625 22.1875 11.75 
Q 26.265625 6.109375 33.40625 6.109375 
Q 40.53125 6.109375 44.609375 11.75 
Q 48.6875 17.390625 48.6875 27.296875 
z
" id="DejaVuSans-112"/>
      <path d="M 44.28125 53.078125 
L 44.28125 44.578125 
Q 40.484375 46.53125 36.375 47.5 
Q 32.28125 48.484375 27.875 48.484375 
Q 21.1875 48.484375 17.84375 46.4375 
Q 14.5 44.390625 14.5 40.28125 
Q 14.5 37.15625 16.890625 35.375 
Q 19.28125 33.59375 26.515625 31.984375 
L 29.59375 31.296875 
Q 39.15625 29.25 43.1875 25.515625 
Q 47.21875 21.78125 47.21875 15.09375 
Q 47.21875 7.46875 41.1875 3.015625 
Q 35.15625 -1.421875 24.609375 -1.421875 
Q 20.21875 -1.421875 15.453125 -0.5625 
Q 10.6875 0.296875 5.421875 2 
L 5.421875 11.28125 
Q 10.40625 8.6875 15.234375 7.390625 
Q 20.0625 6.109375 24.8125 6.109375 
Q 31.15625 6.109375 34.5625 8.28125 
Q 37.984375 10.453125 37.984375 14.40625 
Q 37.984375 18.0625 35.515625 20.015625 
Q 33.0625 21.96875 24.703125 23.78125 
L 21.578125 24.515625 
Q 13.234375 26.265625 9.515625 29.90625 
Q 5.8125 33.546875 5.8125 39.890625 
Q 5.8125 47.609375 11.28125 51.796875 
Q 16.75 56 26.8125 56 
Q 31.78125 56 36.171875 55.265625 
Q 40.578125 54.546875 44.28125 53.078125 
z
" id="DejaVuSans-115"/>
     </defs>
     <g transform="translate(218.800625 169.948312)scale(0.1 -0.1)">
      <use xlink:href="#DejaVuSans-99"/>
      <use x="54.980469" xlink:href="#DejaVuSans-97"/>
      <use x="116.259766" xlink:href="#DejaVuSans-114"/>
      <use x="157.373047" xlink:href="#DejaVuSans-32"/>
      <use x="189.160156" xlink:href="#DejaVuSans-112"/>
      <use x="252.636719" xlink:href="#DejaVuSans-111"/>
      <use x="313.818359" xlink:href="#DejaVuSans-115"/>
      <use x="365.917969" xlink:href="#DejaVuSans-105"/>
      <use x="393.701172" xlink:href="#DejaVuSans-116"/>
      <use x="432.910156" xlink:href="#DejaVuSans-105"/>
      <use x="460.693359" xlink:href="#DejaVuSans-111"/>
      <use x="521.875" xlink:href="#DejaVuSans-110"/>
     </g>
    </g>
    <g id="line2d_33">
     <path d="M 190.800625 181.126437 
L 210.800625 181.126437 
" style="fill:none;stroke:#ff7f0e;stroke-linecap:square;stroke-width:1.5;"/>
    </g>
    <g id="line2d_34"/>
    <g id="text_19">
     <!-- EKF tracking -->
     <defs>
      <path d="M 9.078125 75.984375 
L 18.109375 75.984375 
L 18.109375 31.109375 
L 44.921875 54.6875 
L 56.390625 54.6875 
L 27.390625 29.109375 
L 57.625 0 
L 45.90625 0 
L 18.109375 26.703125 
L 18.109375 0 
L 9.078125 0 
z
" id="DejaVuSans-107"/>
      <path d="M 45.40625 27.984375 
Q 45.40625 37.75 41.375 43.109375 
Q 37.359375 48.484375 30.078125 48.484375 
Q 22.859375 48.484375 18.828125 43.109375 
Q 14.796875 37.75 14.796875 27.984375 
Q 14.796875 18.265625 18.828125 12.890625 
Q 22.859375 7.515625 30.078125 7.515625 
Q 37.359375 7.515625 41.375 12.890625 
Q 45.40625 18.265625 45.40625 27.984375 
z
M 54.390625 6.78125 
Q 54.390625 -7.171875 48.1875 -13.984375 
Q 42 -20.796875 29.203125 -20.796875 
Q 24.46875 -20.796875 20.265625 -20.09375 
Q 16.0625 -19.390625 12.109375 -17.921875 
L 12.109375 -9.1875 
Q 16.0625 -11.328125 19.921875 -12.34375 
Q 23.78125 -13.375 27.78125 -13.375 
Q 36.625 -13.375 41.015625 -8.765625 
Q 45.40625 -4.15625 45.40625 5.171875 
L 45.40625 9.625 
Q 42.625 4.78125 38.28125 2.390625 
Q 33.9375 0 27.875 0 
Q 17.828125 0 11.671875 7.65625 
Q 5.515625 15.328125 5.515625 27.984375 
Q 5.515625 40.671875 11.671875 48.328125 
Q 17.828125 56 27.875 56 
Q 33.9375 56 38.28125 53.609375 
Q 42.625 51.21875 45.40625 46.390625 
L 45.40625 54.6875 
L 54.390625 54.6875 
z
" id="DejaVuSans-103"/>
     </defs>
     <g transform="translate(218.800625 184.626437)scale(0.1 -0.1)">
      <use xlink:href="#DejaVuSans-69"/>
      <use x="63.183594" xlink:href="#DejaVuSans-75"/>
      <use x="128.759766" xlink:href="#DejaVuSans-70"/>
      <use x="186.279297" xlink:href="#DejaVuSans-32"/>
      <use x="218.066406" xlink:href="#DejaVuSans-116"/>
      <use x="257.275391" xlink:href="#DejaVuSans-114"/>
      <use x="298.388672" xlink:href="#DejaVuSans-97"/>
      <use x="359.667969" xlink:href="#DejaVuSans-99"/>
      <use x="414.648438" xlink:href="#DejaVuSans-107"/>
      <use x="472.558594" xlink:href="#DejaVuSans-105"/>
      <use x="500.341797" xlink:href="#DejaVuSans-110"/>
      <use x="563.720703" xlink:href="#DejaVuSans-103"/>
     </g>
    </g>
   </g>
  </g>
 </g>
 <defs>
  <clipPath id="p34143d6d51">
   <rect height="266.112" width="357.12" x="57.6" y="41.472"/>
  </clipPath>
 </defs>
</svg>
