<?xml version="1.0" encoding="utf-8" standalone="no"?>
<!DOCTYPE svg PUBLIC "-//W3C//DTD SVG 1.1//EN"
  "http://www.w3.org/Graphics/SVG/1.1/DTD/svg11.dtd">
<!-- Created with matplotlib (https://matplotlib.org/) -->
<svg height="345.6pt" version="1.1" viewBox="0 0 460.8 345.6" width="460.8pt" xmlns="http://www.w3.org/2000/svg" xmlns:xlink="http://www.w3.org/1999/xlink">
 <defs>
  <style type="text/css">
*{stroke-linecap:butt;stroke-linejoin:round;}
  </style>
 </defs>
 <g id="figure_1">
  <g id="patch_1">
   <path d="M 0 345.6 
L 460.8 345.6 
L 460.8 0 
L 0 0 
z
" style="fill:#ffffff;"/>
  </g>
  <g id="axes_1">
   <g id="patch_2">
    <path d="M 57.6 307.584 
L 414.72 307.584 
L 414.72 41.472 
L 57.6 41.472 
z
" style="fill:#ffffff;"/>
   </g>
   <g id="matplotlib.axis_1">
    <g id="xtick_1">
     <g id="line2d_1">
      <path clip-path="url(#p2eb4e79c58)" d="M 114.829804 307.584 
L 114.829804 41.472 
" style="fill:none;stroke:#b0b0b0;stroke-linecap:square;stroke-width:0.8;"/>
     </g>
     <g id="line2d_2">
      <defs>
       <path d="M 0 0 
L 0 3.5 
" id="mad769abd3e" style="stroke:#000000;stroke-width:0.8;"/>
      </defs>
      <g>
       <use style="stroke:#000000;stroke-width:0.8;" x="114.829804" xlink:href="#mad769abd3e" y="307.584"/>
      </g>
     </g>
     <g id="text_1">
      <!-- 50 -->
      <defs>
       <path d="M 10.796875 72.90625 
L 49.515625 72.90625 
L 49.515625 64.59375 
L 19.828125 64.59375 
L 19.828125 46.734375 
Q 21.96875 47.46875 24.109375 47.828125 
Q 26.265625 48.1875 28.421875 48.1875 
Q 40.625 48.1875 47.75 41.5 
Q 54.890625 34.8125 54.890625 23.390625 
Q 54.890625 11.625 47.5625 5.09375 
Q 40.234375 -1.421875 26.90625 -1.421875 
Q 22.3125 -1.421875 17.546875 -0.640625 
Q 12.796875 0.140625 7.71875 1.703125 
L 7.71875 11.625 
Q 12.109375 9.234375 16.796875 8.0625 
Q 21.484375 6.890625 26.703125 6.890625 
Q 35.15625 6.890625 40.078125 11.328125 
Q 45.015625 15.765625 45.015625 23.390625 
Q 45.015625 31 40.078125 35.4375 
Q 35.15625 39.890625 26.703125 39.890625 
Q 22.75 39.890625 18.8125 39.015625 
Q 14.890625 38.140625 10.796875 36.28125 
z
" id="DejaVuSans-53"/>
       <path d="M 31.78125 66.40625 
Q 24.171875 66.40625 20.328125 58.90625 
Q 16.5 51.421875 16.5 36.375 
Q 16.5 21.390625 20.328125 13.890625 
Q 24.171875 6.390625 31.78125 6.390625 
Q 39.453125 6.390625 43.28125 13.890625 
Q 47.125 21.390625 47.125 36.375 
Q 47.125 51.421875 43.28125 58.90625 
Q 39.453125 66.40625 31.78125 66.40625 
z
M 31.78125 74.21875 
Q 44.046875 74.21875 50.515625 64.515625 
Q 56.984375 54.828125 56.984375 36.375 
Q 56.984375 17.96875 50.515625 8.265625 
Q 44.046875 -1.421875 31.78125 -1.421875 
Q 19.53125 -1.421875 13.0625 8.265625 
Q 6.59375 17.96875 6.59375 36.375 
Q 6.59375 54.828125 13.0625 64.515625 
Q 19.53125 74.21875 31.78125 74.21875 
z
" id="DejaVuSans-48"/>
      </defs>
      <g transform="translate(108.467304 322.182437)scale(0.1 -0.1)">
       <use xlink:href="#DejaVuSans-53"/>
       <use x="63.623047" xlink:href="#DejaVuSans-48"/>
      </g>
     </g>
    </g>
    <g id="xtick_2">
     <g id="line2d_3">
      <path clip-path="url(#p2eb4e79c58)" d="M 191.030964 307.584 
L 191.030964 41.472 
" style="fill:none;stroke:#b0b0b0;stroke-linecap:square;stroke-width:0.8;"/>
     </g>
     <g id="line2d_4">
      <g>
       <use style="stroke:#000000;stroke-width:0.8;" x="191.030964" xlink:href="#mad769abd3e" y="307.584"/>
      </g>
     </g>
     <g id="text_2">
      <!-- 100 -->
      <defs>
       <path d="M 12.40625 8.296875 
L 28.515625 8.296875 
L 28.515625 63.921875 
L 10.984375 60.40625 
L 10.984375 69.390625 
L 28.421875 72.90625 
L 38.28125 72.90625 
L 38.28125 8.296875 
L 54.390625 8.296875 
L 54.390625 0 
L 12.40625 0 
z
" id="DejaVuSans-49"/>
      </defs>
      <g transform="translate(181.487214 322.182437)scale(0.1 -0.1)">
       <use xlink:href="#DejaVuSans-49"/>
       <use x="63.623047" xlink:href="#DejaVuSans-48"/>
       <use x="127.246094" xlink:href="#DejaVuSans-48"/>
      </g>
     </g>
    </g>
    <g id="xtick_3">
     <g id="line2d_5">
      <path clip-path="url(#p2eb4e79c58)" d="M 267.232124 307.584 
L 267.232124 41.472 
" style="fill:none;stroke:#b0b0b0;stroke-linecap:square;stroke-width:0.8;"/>
     </g>
     <g id="line2d_6">
      <g>
       <use style="stroke:#000000;stroke-width:0.8;" x="267.232124" xlink:href="#mad769abd3e" y="307.584"/>
      </g>
     </g>
     <g id="text_3">
      <!-- 150 -->
      <g transform="translate(257.688374 322.182437)scale(0.1 -0.1)">
       <use xlink:href="#DejaVuSans-49"/>
       <use x="63.623047" xlink:href="#DejaVuSans-53"/>
       <use x="127.246094" xlink:href="#DejaVuSans-48"/>
      </g>
     </g>
    </g>
    <g id="xtick_4">
     <g id="line2d_7">
      <path clip-path="url(#p2eb4e79c58)" d="M 343.433285 307.584 
L 343.433285 41.472 
" style="fill:none;stroke:#b0b0b0;stroke-linecap:square;stroke-width:0.8;"/>
     </g>
     <g id="line2d_8">
      <g>
       <use style="stroke:#000000;stroke-width:0.8;" x="343.433285" xlink:href="#mad769abd3e" y="307.584"/>
      </g>
     </g>
     <g id="text_4">
      <!-- 200 -->
      <defs>
       <path d="M 19.1875 8.296875 
L 53.609375 8.296875 
L 53.609375 0 
L 7.328125 0 
L 7.328125 8.296875 
Q 12.9375 14.109375 22.625 23.890625 
Q 32.328125 33.6875 34.8125 36.53125 
Q 39.546875 41.84375 41.421875 45.53125 
Q 43.3125 49.21875 43.3125 52.78125 
Q 43.3125 58.59375 39.234375 62.25 
Q 35.15625 65.921875 28.609375 65.921875 
Q 23.96875 65.921875 18.8125 64.3125 
Q 13.671875 62.703125 7.8125 59.421875 
L 7.8125 69.390625 
Q 13.765625 71.78125 18.9375 73 
Q 24.125 74.21875 28.421875 74.21875 
Q 39.75 74.21875 46.484375 68.546875 
Q 53.21875 62.890625 53.21875 53.421875 
Q 53.21875 48.921875 51.53125 44.890625 
Q 49.859375 40.875 45.40625 35.40625 
Q 44.1875 33.984375 37.640625 27.21875 
Q 31.109375 20.453125 19.1875 8.296875 
z
" id="DejaVuSans-50"/>
      </defs>
      <g transform="translate(333.889535 322.182437)scale(0.1 -0.1)">
       <use xlink:href="#DejaVuSans-50"/>
       <use x="63.623047" xlink:href="#DejaVuSans-48"/>
       <use x="127.246094" xlink:href="#DejaVuSans-48"/>
      </g>
     </g>
    </g>
    <g id="text_5">
     <!-- x (mm) -->
     <defs>
      <path d="M 54.890625 54.6875 
L 35.109375 28.078125 
L 55.90625 0 
L 45.3125 0 
L 29.390625 21.484375 
L 13.484375 0 
L 2.875 0 
L 24.125 28.609375 
L 4.6875 54.6875 
L 15.28125 54.6875 
L 29.78125 35.203125 
L 44.28125 54.6875 
z
" id="DejaVuSans-120"/>
      <path id="DejaVuSans-32"/>
      <path d="M 31 75.875 
Q 24.46875 64.65625 21.28125 53.65625 
Q 18.109375 42.671875 18.109375 31.390625 
Q 18.109375 20.125 21.3125 9.0625 
Q 24.515625 -2 31 -13.1875 
L 23.1875 -13.1875 
Q 15.875 -1.703125 12.234375 9.375 
Q 8.59375 20.453125 8.59375 31.390625 
Q 8.59375 42.28125 12.203125 53.3125 
Q 15.828125 64.359375 23.1875 75.875 
z
" id="DejaVuSans-40"/>
      <path d="M 52 44.1875 
Q 55.375 50.25 60.0625 53.125 
Q 64.75 56 71.09375 56 
Q 79.640625 56 84.28125 50.015625 
Q 88.921875 44.046875 88.921875 33.015625 
L 88.921875 0 
L 79.890625 0 
L 79.890625 32.71875 
Q 79.890625 40.578125 77.09375 44.375 
Q 74.3125 48.1875 68.609375 48.1875 
Q 61.625 48.1875 57.5625 43.546875 
Q 53.515625 38.921875 53.515625 30.90625 
L 53.515625 0 
L 44.484375 0 
L 44.484375 32.71875 
Q 44.484375 40.625 41.703125 44.40625 
Q 38.921875 48.1875 33.109375 48.1875 
Q 26.21875 48.1875 22.15625 43.53125 
Q 18.109375 38.875 18.109375 30.90625 
L 18.109375 0 
L 9.078125 0 
L 9.078125 54.6875 
L 18.109375 54.6875 
L 18.109375 46.1875 
Q 21.1875 51.21875 25.484375 53.609375 
Q 29.78125 56 35.6875 56 
Q 41.65625 56 45.828125 52.96875 
Q 50 49.953125 52 44.1875 
z
" id="DejaVuSans-109"/>
      <path d="M 8.015625 75.875 
L 15.828125 75.875 
Q 23.140625 64.359375 26.78125 53.3125 
Q 30.421875 42.28125 30.421875 31.390625 
Q 30.421875 20.453125 26.78125 9.375 
Q 23.140625 -1.703125 15.828125 -13.1875 
L 8.015625 -13.1875 
Q 14.5 -2 17.703125 9.0625 
Q 20.90625 20.125 20.90625 31.390625 
Q 20.90625 42.671875 17.703125 53.65625 
Q 14.5 64.65625 8.015625 75.875 
z
" id="DejaVuSans-41"/>
     </defs>
     <g transform="translate(217.969375 335.860562)scale(0.1 -0.1)">
      <use xlink:href="#DejaVuSans-120"/>
      <use x="59.179688" xlink:href="#DejaVuSans-32"/>
      <use x="90.966797" xlink:href="#DejaVuSans-40"/>
      <use x="129.980469" xlink:href="#DejaVuSans-109"/>
      <use x="227.392578" xlink:href="#DejaVuSans-109"/>
      <use x="324.804688" xlink:href="#DejaVuSans-41"/>
     </g>
    </g>
   </g>
   <g id="matplotlib.axis_2">
    <g id="ytick_1">
     <g id="line2d_9">
      <path clip-path="url(#p2eb4e79c58)" d="M 57.6 267.038407 
L 414.72 267.038407 
" style="fill:none;stroke:#b0b0b0;stroke-linecap:square;stroke-width:0.8;"/>
     </g>
     <g id="line2d_10">
      <defs>
       <path d="M 0 0 
L -3.5 0 
" id="md208d091a2" style="stroke:#000000;stroke-width:0.8;"/>
      </defs>
      <g>
       <use style="stroke:#000000;stroke-width:0.8;" x="57.6" xlink:href="#md208d091a2" y="267.038407"/>
      </g>
     </g>
     <g id="text_6">
      <!-- 500 -->
      <g transform="translate(31.5125 270.837626)scale(0.1 -0.1)">
       <use xlink:href="#DejaVuSans-53"/>
       <use x="63.623047" xlink:href="#DejaVuSans-48"/>
       <use x="127.246094" xlink:href="#DejaVuSans-48"/>
      </g>
     </g>
    </g>
    <g id="ytick_2">
     <g id="line2d_11">
      <path clip-path="url(#p2eb4e79c58)" d="M 57.6 209.792697 
L 414.72 209.792697 
" style="fill:none;stroke:#b0b0b0;stroke-linecap:square;stroke-width:0.8;"/>
     </g>
     <g id="line2d_12">
      <g>
       <use style="stroke:#000000;stroke-width:0.8;" x="57.6" xlink:href="#md208d091a2" y="209.792697"/>
      </g>
     </g>
     <g id="text_7">
      <!-- 550 -->
      <g transform="translate(31.5125 213.591915)scale(0.1 -0.1)">
       <use xlink:href="#DejaVuSans-53"/>
       <use x="63.623047" xlink:href="#DejaVuSans-53"/>
       <use x="127.246094" xlink:href="#DejaVuSans-48"/>
      </g>
     </g>
    </g>
    <g id="ytick_3">
     <g id="line2d_13">
      <path clip-path="url(#p2eb4e79c58)" d="M 57.6 152.546987 
L 414.72 152.546987 
" style="fill:none;stroke:#b0b0b0;stroke-linecap:square;stroke-width:0.8;"/>
     </g>
     <g id="line2d_14">
      <g>
       <use style="stroke:#000000;stroke-width:0.8;" x="57.6" xlink:href="#md208d091a2" y="152.546987"/>
      </g>
     </g>
     <g id="text_8">
      <!-- 600 -->
      <defs>
       <path d="M 33.015625 40.375 
Q 26.375 40.375 22.484375 35.828125 
Q 18.609375 31.296875 18.609375 23.390625 
Q 18.609375 15.53125 22.484375 10.953125 
Q 26.375 6.390625 33.015625 6.390625 
Q 39.65625 6.390625 43.53125 10.953125 
Q 47.40625 15.53125 47.40625 23.390625 
Q 47.40625 31.296875 43.53125 35.828125 
Q 39.65625 40.375 33.015625 40.375 
z
M 52.59375 71.296875 
L 52.59375 62.3125 
Q 48.875 64.0625 45.09375 64.984375 
Q 41.3125 65.921875 37.59375 65.921875 
Q 27.828125 65.921875 22.671875 59.328125 
Q 17.53125 52.734375 16.796875 39.40625 
Q 19.671875 43.65625 24.015625 45.921875 
Q 28.375 48.1875 33.59375 48.1875 
Q 44.578125 48.1875 50.953125 41.515625 
Q 57.328125 34.859375 57.328125 23.390625 
Q 57.328125 12.15625 50.6875 5.359375 
Q 44.046875 -1.421875 33.015625 -1.421875 
Q 20.359375 -1.421875 13.671875 8.265625 
Q 6.984375 17.96875 6.984375 36.375 
Q 6.984375 53.65625 15.1875 63.9375 
Q 23.390625 74.21875 37.203125 74.21875 
Q 40.921875 74.21875 44.703125 73.484375 
Q 48.484375 72.75 52.59375 71.296875 
z
" id="DejaVuSans-54"/>
      </defs>
      <g transform="translate(31.5125 156.346205)scale(0.1 -0.1)">
       <use xlink:href="#DejaVuSans-54"/>
       <use x="63.623047" xlink:href="#DejaVuSans-48"/>
       <use x="127.246094" xlink:href="#DejaVuSans-48"/>
      </g>
     </g>
    </g>
    <g id="ytick_4">
     <g id="line2d_15">
      <path clip-path="url(#p2eb4e79c58)" d="M 57.6 95.301276 
L 414.72 95.301276 
" style="fill:none;stroke:#b0b0b0;stroke-linecap:square;stroke-width:0.8;"/>
     </g>
     <g id="line2d_16">
      <g>
       <use style="stroke:#000000;stroke-width:0.8;" x="57.6" xlink:href="#md208d091a2" y="95.301276"/>
      </g>
     </g>
     <g id="text_9">
      <!-- 650 -->
      <g transform="translate(31.5125 99.100495)scale(0.1 -0.1)">
       <use xlink:href="#DejaVuSans-54"/>
       <use x="63.623047" xlink:href="#DejaVuSans-53"/>
       <use x="127.246094" xlink:href="#DejaVuSans-48"/>
      </g>
     </g>
    </g>
    <g id="text_10">
     <!-- y (mm) -->
     <defs>
      <path d="M 32.171875 -5.078125 
Q 28.375 -14.84375 24.75 -17.8125 
Q 21.140625 -20.796875 15.09375 -20.796875 
L 7.90625 -20.796875 
L 7.90625 -13.28125 
L 13.1875 -13.28125 
Q 16.890625 -13.28125 18.9375 -11.515625 
Q 21 -9.765625 23.484375 -3.21875 
L 25.09375 0.875 
L 2.984375 54.6875 
L 12.5 54.6875 
L 29.59375 11.921875 
L 46.6875 54.6875 
L 56.203125 54.6875 
z
" id="DejaVuSans-121"/>
     </defs>
     <g transform="translate(25.432812 192.718625)rotate(-90)scale(0.1 -0.1)">
      <use xlink:href="#DejaVuSans-121"/>
      <use x="59.179688" xlink:href="#DejaVuSans-32"/>
      <use x="90.966797" xlink:href="#DejaVuSans-40"/>
      <use x="129.980469" xlink:href="#DejaVuSans-109"/>
      <use x="227.392578" xlink:href="#DejaVuSans-109"/>
      <use x="324.804688" xlink:href="#DejaVuSans-41"/>
     </g>
    </g>
   </g>
   <g id="line2d_17">
    <path clip-path="url(#p2eb4e79c58)" d="M 343.433285 152.546987 
L 343.326435 156.958524 
L 342.97047 161.362681 
L 342.366029 165.751521 
L 341.514202 170.117136 
L 340.416524 174.451661 
L 339.074973 178.747284 
L 337.491967 182.996267 
L 335.930417 186.586804 
L 334.139236 190.115312 
L 332.120679 193.573851 
L 329.879568 196.954156 
L 327.421259 200.248152 
L 324.751624 203.447968 
L 321.877042 206.545959 
L 318.804381 209.534723 
L 315.548544 212.406522 
L 311.572112 215.631677 
L 307.416406 218.726647 
L 303.088969 221.685813 
L 298.59766 224.503802 
L 293.950631 227.175498 
L 289.156321 229.696051 
L 284.218839 232.061486 
L 279.852728 233.935755 
L 275.369871 235.647435 
L 270.780989 237.192433 
L 266.097055 238.567054 
L 260.527283 239.951078 
L 254.861517 241.09424 
L 249.118194 241.992818 
L 243.319773 242.652567 
L 236.656149 243.180062 
L 229.967218 243.47594 
L 223.267237 243.539571 
L 216.570487 243.37082 
L 209.891242 242.970047 
L 203.244146 242.33694 
L 197.475314 241.554254 
L 191.770746 240.539996 
L 186.146901 239.29709 
L 180.620005 237.829124 
L 175.206004 236.140332 
L 169.920518 234.235587 
L 164.778634 232.120314 
L 159.791337 229.803877 
L 154.971085 227.295795 
L 150.330912 224.602849 
L 145.88337 221.732323 
L 141.640485 218.69198 
L 138.175331 215.957033 
L 134.875863 213.10879 
L 131.743844 210.146217 
L 128.795361 207.074577 
L 126.040652 203.903036 
L 123.485703 200.638487 
L 121.136067 197.288028 
L 118.996852 193.858938 
L 117.072706 190.358673 
L 115.367813 186.794839 
L 113.887378 183.186406 
L 112.161657 178.352105 
L 110.668386 173.474323 
L 109.409495 168.559365 
L 108.386613 163.613586 
L 107.601061 158.643379 
L 107.053855 153.65517 
L 106.7881 149.259881 
L 106.749213 144.860157 
L 106.937252 140.462604 
L 107.351937 136.073826 
L 107.992643 131.700411 
L 108.858408 127.348928 
L 109.947934 123.025911 
L 111.088384 119.350433 
L 112.238883 116.32593 
L 113.858828 112.75295 
L 115.735308 109.251527 
L 117.862758 105.832045 
L 120.234866 102.504649 
L 122.844597 99.279208 
L 125.684209 96.16529 
L 128.74582 93.168494 
L 132.52548 89.788125 
L 136.490299 86.529657 
L 140.633318 83.39881 
L 144.947265 80.401079 
L 149.424567 77.541726 
L 154.057367 74.82577 
L 158.836039 72.258749 
L 163.745651 69.850109 
L 168.787049 67.600347 
L 173.951129 65.513524 
L 179.228564 63.59341 
L 184.609825 61.843472 
L 190.874496 60.055961 
L 197.250317 58.498006 
L 203.72376 57.158313 
L 210.269755 56.035065 
L 216.875485 55.130463 
L 223.528016 54.446275 
L 230.214324 53.983843 
L 236.921317 53.744072 
L 243.62639 53.735804 
L 250.324256 53.969439 
L 256.99946 54.44444 
L 263.636599 55.159711 
L 270.220357 56.1136 
L 276.735544 57.303906 
L 283.166905 58.713119 
L 290.312448 60.508201 
L 297.355102 62.519713 
L 304.28326 64.744338 
L 311.085498 67.178409 
L 317.752125 69.818544 
L 322.091329 71.734612 
L 326.302151 73.80604 
L 330.374741 76.027982 
L 334.299576 78.395242 
L 338.067476 80.902284 
L 341.669629 83.543244 
L 345.097611 86.311946 
L 348.343404 89.201914 
L 351.909222 92.70645 
L 355.271063 96.322925 
L 358.424122 100.044019 
L 361.36264 103.862934 
L 364.081249 107.772694 
L 366.574981 111.766155 
L 368.839282 115.836022 
L 370.868192 119.977008 
L 372.648195 124.182748 
L 374.174638 128.444369 
L 375.444431 132.753248 
L 376.326593 136.477579 
L 377.016989 140.224689 
L 377.514592 143.989007 
L 377.818663 147.764938 
L 377.936955 152.172168 
L 377.811973 156.579293 
L 377.443932 160.978738 
L 376.833464 165.362942 
L 375.981619 169.724369 
L 374.889862 174.055521 
L 373.560068 178.348954 
L 372.009873 182.591711 
L 370.26645 186.790449 
L 368.040439 191.53064 
L 365.568627 196.201584 
L 362.854819 200.796092 
L 359.903193 205.307089 
L 356.71832 209.729123 
L 353.317459 214.061975 
L 349.71076 218.299846 
L 345.902917 222.437219 
L 341.898886 226.468708 
L 337.703881 230.389067 
L 333.323524 234.193054 
L 328.201097 238.33968 
L 322.891749 242.351417 
L 317.40177 246.223513 
L 311.737663 249.951379 
L 305.906139 253.5306 
L 299.898582 256.953447 
L 294.380009 259.819635 
L 288.702461 262.504875 
L 282.876446 265.004199 
L 276.912742 267.312983 
L 270.822386 269.426954 
L 264.625693 271.341062 
L 257.559459 273.275422 
L 250.392436 274.987768 
L 243.136977 276.475148 
L 235.805589 277.734998 
L 228.410909 278.765147 
L 221.790018 279.462139 
L 215.961427 279.839354 
L 210.11489 279.994381 
L 204.265402 279.926825 
L 198.427971 279.636858 
L 192.61757 279.125224 
L 186.849104 278.393236 
L 180.321804 277.306411 
L 173.863937 276.006471 
L 167.4864 274.49924 
L 161.200977 272.787504 
L 155.019281 270.874424 
L 148.952735 268.763536 
L 143.015457 266.453454 
L 137.959982 264.240303 
L 133.052306 261.84675 
L 128.303825 259.278354 
L 123.725569 256.541081 
L 119.32817 253.641286 
L 115.121839 250.585704 
L 111.11574 247.382917 
L 107.302976 244.050924 
L 103.685419 240.598277 
L 100.269826 237.031427 
L 97.062577 233.357036 
L 94.069662 229.581967 
L 91.296673 225.713271 
L 88.744833 221.753144 
L 86.391564 217.708254 
L 84.238351 213.60095 
L 82.288122 209.436814 
L 80.543527 205.221506 
L 79.006936 200.960755 
L 77.680439 196.66035 
L 76.565391 192.324238 
L 75.680532 187.94665 
L 75.044612 183.544726 
L 74.658785 179.126452 
L 74.52375 174.699843 
L 74.639754 170.27293 
L 75.006584 165.853742 
L 75.623576 161.450299 
L 76.374912 157.707199 
L 77.369797 153.9963 
L 78.605834 150.326539 
L 80.080047 146.706755 
L 81.788885 143.145666 
L 83.728232 139.65185 
L 85.893417 136.233721 
L 88.279226 132.899511 
L 90.880264 129.653776 
L 93.681582 126.501636 
L 96.675157 123.450864 
L 99.854501 120.50807 
L 103.212722 117.679634 
L 106.742541 114.971687 
L 110.436308 112.390097 
L 114.286016 109.940461 
L 118.952342 107.25514 
L 124.432039 104.350916 
L 130.051415 101.601449 
L 135.80273 99.010526 
L 141.678061 96.581715 
L 148.425965 94.047235 
L 155.302311 91.727374 
L 162.277855 89.606422 
L 169.350502 87.675471 
L 176.511085 85.937022 
L 183.750323 84.39333 
L 191.058834 83.046395 
L 198.442449 81.898736 
L 205.882929 80.962069 
L 213.365479 80.238867 
L 220.879252 79.730178 
L 228.413356 79.436741 
L 235.953028 79.359455 
L 242.641276 79.492279 
L 249.317132 79.825614 
L 255.969947 80.358928 
L 262.589113 81.091371 
L 269.164072 82.021775 
L 275.684338 83.148655 
L 282.948557 84.64178 
L 290.123858 86.360511 
L 297.19783 88.301877 
L 304.158241 90.462519 
L 310.993052 92.838701 
L 317.698125 95.430783 
L 323.535046 97.922714 
L 329.236018 100.586354 
L 334.792095 103.417521 
L 340.194559 106.411774 
L 345.434934 109.564415 
L 350.507683 112.872821 
L 355.39568 116.34787 
L 359.500152 119.520014 
L 363.437067 122.809836 
L 367.200451 126.212343 
L 370.784596 129.722373 
L 374.184063 133.334601 
L 377.391112 137.040994 
L 380.387184 140.8364 
L 383.168162 144.723095 
L 385.729128 148.694202 
L 388.065551 152.742698 
L 390.173298 156.86142 
L 392.04864 161.043082 
L 393.687949 165.279429 
L 395.088222 169.558409 
L 396.249956 173.877504 
L 397.171132 178.229212 
L 397.850151 182.605975 
L 398.285834 187.000191 
L 398.477423 191.404229 
L 398.424587 195.81044 
L 398.176462 199.584127 
L 397.72929 203.347452 
L 397.083774 207.094491 
L 396.24093 210.819346 
L 395.202085 214.516155 
L 393.968874 218.1791 
L 392.543238 221.802417 
L 390.927421 225.380401 
L 388.814522 229.491041 
L 386.489327 233.535855 
L 383.957594 237.510069 
L 381.223112 241.407734 
L 378.289975 245.223016 
L 375.162573 248.950201 
L 371.84559 252.583712 
L 368.337466 256.120408 
L 364.628249 259.543945 
L 360.725012 262.843498 
L 356.635091 266.012868 
L 352.366171 269.046098 
L 347.926275 271.937488 
L 343.323745 274.681605 
L 338.568373 277.271826 
L 333.663653 279.695997 
L 328.615875 281.948344 
L 323.435697 284.024112 
L 318.134057 285.918918 
L 312.72215 287.628763 
L 307.2114 289.150034 
L 301.615931 290.479925 
L 295.148909 291.798391 
L 288.615654 292.917503 
L 282.027051 293.835396 
L 275.394077 294.55054 
L 268.727781 295.061746 
L 262.039269 295.36816 
L 256.174291 295.437421 
L 250.312419 295.278182 
L 244.469418 294.89087 
L 238.660999 294.276528 
L 232.902783 293.436806 
L 227.210255 292.373964 
L 221.598722 291.090859 
L 214.48304 289.183015 
L 206.676726 286.85975 
L 198.985936 284.32836 
L 191.420499 281.592078 
L 183.990081 278.654402 
L 177.460659 275.828725 
L 171.818361 273.124596 
L 166.336501 270.240228 
L 161.025277 267.180987 
L 155.894564 263.952561 
L 150.953906 260.560955 
L 146.204643 257.008195 
L 141.653016 253.306434 
L 137.310369 249.465595 
L 133.184225 245.492332 
L 129.28173 241.393527 
L 125.609645 237.176281 
L 122.174883 232.85418 
L 118.54265 227.903957 
L 115.133217 222.865094 
L 111.950411 217.74325 
L 108.997806 212.544173 
L 106.278717 207.273703 
L 104.344762 203.117124 
L 102.649675 198.899309 
L 101.204115 194.629384 
L 100.010903 190.315679 
L 99.072366 185.966604 
L 98.390333 181.590641 
L 97.966135 177.196323 
L 97.798156 172.788956 
L 97.872446 168.377642 
L 98.186658 163.972294 
L 98.740265 159.580274 
L 99.532343 155.208921 
L 100.561569 150.865539 
L 101.826222 146.557386 
L 103.319779 142.300039 
L 105.023246 138.09986 
L 106.934039 133.950329 
L 109.049499 129.85722 
L 111.366682 125.826227 
L 113.882364 121.862959 
L 116.593046 117.972931 
L 119.499114 114.15767 
L 122.628626 110.42903 
L 125.979612 106.81064 
L 129.545201 103.30992 
L 133.318083 99.934048 
L 137.290521 96.689943 
L 141.454372 93.584259 
L 145.799446 90.624445 
L 152.195221 86.579242 
L 158.75752 82.687475 
L 165.479824 78.953011 
L 172.355454 75.379558 
L 179.378244 71.970357 
L 185.128032 69.394321 
L 191.006143 66.987278 
L 197.003781 64.752832 
L 203.11197 62.694326 
L 209.32157 60.814841 
L 215.623287 59.11719 
L 222.022105 57.620244 
L 227.697481 56.508281 
L 233.432246 55.584145 
L 239.215391 54.84961 
L 245.869696 54.244096 
L 252.556004 53.889572 
L 259.257365 53.786771 
L 265.956918 53.929441 
L 272.639585 54.313995 
L 279.289902 54.939541 
L 285.892479 55.804634 
L 292.432035 56.90727 
L 298.893437 58.244898 
L 298.893437 58.244898 
" style="fill:none;stroke:#1f77b4;stroke-linecap:square;stroke-width:1.5;"/>
   </g>
   <g id="line2d_18">
    <path clip-path="url(#p2eb4e79c58)" d="M 343.433285 152.546987 
L 343.326414 156.953748 
L 342.970561 161.353293 
L 342.366495 165.738556 
L 341.515331 170.099427 
L 340.418589 174.430751 
L 339.078751 178.720343 
L 337.497942 182.962031 
L 335.936106 186.553905 
L 334.144163 190.084342 
L 332.124548 193.545327 
L 329.882179 196.928193 
L 327.423099 200.22191 
L 324.752021 203.422715 
L 321.876414 206.520635 
L 318.802303 209.510468 
L 315.541124 212.387078 
L 311.554026 215.620768 
L 307.386962 218.724068 
L 303.048772 221.689154 
L 298.544249 224.51797 
L 293.884818 227.197696 
L 289.076814 229.726505 
L 284.130543 232.095277 
L 279.764523 233.968861 
L 275.280063 235.683264 
L 269.917623 237.468487 
L 265.219983 238.812074 
L 260.439943 239.982613 
L 254.773289 241.12674 
L 249.855555 241.910761 
L 244.060471 242.603385 
L 237.40125 243.154764 
L 230.70649 243.483423 
L 224.005342 243.572512 
L 217.305432 243.429715 
L 210.618527 243.057698 
L 203.959983 242.45576 
L 198.176543 241.707866 
L 192.455735 240.727385 
L 186.811444 239.51811 
L 181.265677 238.081192 
L 175.82666 236.424855 
L 170.51783 234.548519 
L 165.35216 232.461787 
L 160.339661 230.171092 
L 155.492928 227.687716 
L 150.826553 225.017788 
L 146.976318 222.587999 
L 142.670816 219.59327 
L 138.580316 216.434842 
L 135.25016 213.602928 
L 132.094459 210.662688 
L 129.122065 207.615909 
L 126.342776 204.468523 
L 123.761881 201.226358 
L 121.384347 197.897998 
L 119.215711 194.489811 
L 117.262013 191.009891 
L 115.525105 187.46511 
L 114.010259 183.863037 
L 112.246583 179.007737 
L 110.715881 174.103692 
L 109.419704 169.162877 
L 108.36177 164.192184 
L 107.542223 159.192171 
L 106.962552 154.1762 
L 106.665786 149.773858 
L 106.596313 145.367131 
L 106.752177 140.960388 
L 107.135912 136.561284 
L 107.74701 132.178815 
L 108.583196 127.814814 
L 109.643379 123.479193 
L 110.746268 119.793931 
L 111.859712 116.758588 
L 113.438118 113.172449 
L 115.275269 109.653536 
L 117.363683 106.215364 
L 119.699722 102.868699 
L 122.274448 99.621663 
L 125.078312 96.485918 
L 128.105533 93.470234 
L 131.851421 90.077801 
L 135.784825 86.805654 
L 139.894784 83.66325 
L 144.177399 80.653828 
L 148.624298 77.778663 
L 153.228883 75.048008 
L 158.667912 72.105979 
L 163.582965 69.696324 
L 168.629383 67.445077 
L 173.797098 65.357203 
L 179.844915 63.175727 
L 185.2444 61.44875 
L 191.524274 59.690974 
L 197.103603 58.343656 
L 203.5674 57.006699 
L 210.10168 55.886241 
L 216.695703 54.984949 
L 223.343474 54.301824 
L 230.018218 53.841465 
L 236.717518 53.601916 
L 243.417428 53.594586 
L 250.105395 53.829977 
L 256.779545 54.306403 
L 263.408481 55.024091 
L 269.986587 55.978647 
L 275.690704 57.006795 
L 282.139544 58.395518 
L 289.305557 60.170969 
L 296.365256 62.161044 
L 303.317231 64.366267 
L 310.133997 66.777605 
L 316.830801 69.403729 
L 321.188946 71.293299 
L 325.411836 73.335358 
L 329.506747 75.531676 
L 333.450247 77.875396 
L 337.233552 80.354001 
L 340.866762 82.975715 
L 344.316379 85.713788 
L 347.59476 88.586125 
L 350.694955 91.573306 
L 354.105666 95.147764 
L 357.315052 98.833178 
L 360.303601 102.61913 
L 363.081192 106.49115 
L 365.644325 110.463666 
L 367.969157 114.518202 
L 370.062151 118.621682 
L 371.659459 122.205826 
L 373.080096 125.839837 
L 374.493925 130.120653 
L 375.499996 133.824243 
L 376.43749 138.183497 
L 377.03594 141.937563 
L 377.478784 146.322091 
L 377.653385 150.084436 
L 377.647912 153.849388 
L 377.418209 158.260929 
L 376.945472 162.660952 
L 376.350055 166.418408 
L 375.423291 170.779456 
L 374.263915 175.098181 
L 372.866254 179.366442 
L 371.259528 183.614083 
L 369.457752 187.817431 
L 367.460993 191.971446 
L 364.967877 196.624366 
L 362.228039 201.213321 
L 359.243341 205.728754 
L 356.442052 209.589959 
L 353.034551 213.932691 
L 349.420427 218.180475 
L 345.608466 222.327129 
L 341.084924 226.871422 
L 336.864389 230.780883 
L 331.885988 235.052884 
L 326.723299 239.171982 
L 320.768315 243.593023 
L 315.837211 247.018615 
L 309.479445 251.118726 
L 302.909994 255.033297 
L 297.506491 258.01146 
L 291.937398 260.808225 
L 286.204615 263.415626 
L 280.321691 265.829599 
L 274.317674 268.06258 
L 268.960583 269.852801 
L 262.734808 271.7288 
L 255.621844 273.633224 
L 248.415389 275.30753 
L 241.934901 276.594671 
L 236.20929 277.586201 
L 228.798548 278.63359 
L 222.160041 279.367824 
L 216.315783 279.781736 
L 209.621712 279.97364 
L 203.762691 279.894788 
L 197.909635 279.606442 
L 192.09043 279.084446 
L 186.309449 278.348243 
L 180.582908 277.401346 
L 174.09769 276.125992 
L 167.698307 274.631747 
L 160.604694 272.708241 
L 154.411098 270.789789 
L 148.328057 268.671413 
L 142.377169 266.353516 
L 137.31263 264.13213 
L 132.388782 261.733955 
L 127.631636 259.157554 
L 123.047437 256.412617 
L 118.639394 253.506125 
L 114.425381 250.441292 
L 110.411842 247.229766 
L 106.589804 243.889242 
L 102.965224 240.426683 
L 99.54276 236.850038 
L 96.328709 233.164736 
L 93.332172 229.380545 
L 90.551582 225.499976 
L 87.998184 221.535023 
L 85.651303 217.497495 
L 83.506366 213.400379 
L 81.563122 209.24475 
L 79.825616 205.039896 
L 78.294606 200.789312 
L 76.972132 196.499032 
L 75.8613 192.173932 
L 74.984632 187.824427 
L 74.352349 183.450504 
L 73.968329 179.058997 
L 73.832727 174.660024 
L 73.946332 170.262666 
L 74.31007 165.868217 
L 74.920252 161.489483 
L 75.667768 157.75603 
L 76.657376 154.056119 
L 77.885826 150.397143 
L 79.352403 146.787697 
L 81.052485 143.23756 
L 82.984416 139.753265 
L 85.13878 136.345252 
L 87.51337 133.021159 
L 90.096772 129.78897 
L 92.882949 126.649014 
L 95.85866 123.609854 
L 99.025754 120.676451 
L 102.371225 117.858453 
L 105.884573 115.160371 
L 109.563261 112.586914 
L 113.396861 110.145996 
L 118.044883 107.467465 
L 123.517418 104.563751 
L 129.124758 101.817975 
L 134.875706 99.22669 
L 141.491781 96.504558 
L 147.503929 94.257989 
L 154.38351 91.934623 
L 161.380692 89.807006 
L 168.467669 87.870376 
L 175.658165 86.124853 
L 183.715918 84.417701 
L 191.063442 83.086474 
L 198.478361 81.957623 
L 205.93187 81.0421 
L 213.413185 80.341512 
L 220.927051 79.855139 
L 228.457038 79.584462 
L 236.004307 79.531624 
L 242.714656 79.688906 
L 249.402318 80.047851 
L 256.08053 80.609185 
L 262.711051 81.367545 
L 269.302134 82.324534 
L 275.819906 83.476613 
L 283.080551 84.996049 
L 290.251796 86.739389 
L 296.553392 88.479307 
L 303.526516 90.643079 
L 309.631013 92.750263 
L 316.35862 95.317915 
L 322.213452 97.786268 
L 327.923055 100.425171 
L 333.484038 103.228134 
L 338.903453 106.197152 
L 344.163613 109.325852 
L 349.245725 112.606542 
L 354.13055 116.041262 
L 358.824998 119.648476 
L 363.304515 123.403766 
L 367.019641 126.800361 
L 371.057957 130.822207 
L 374.39932 134.45115 
L 377.533532 138.167074 
L 380.472855 141.994425 
L 383.200929 145.91287 
L 385.693327 149.904755 
L 387.973814 153.975334 
L 390.011227 158.101345 
L 391.81553 162.290497 
L 393.393691 166.541503 
L 394.721617 170.833983 
L 395.821864 175.179293 
L 396.674132 179.551711 
L 397.283144 183.930346 
L 397.652486 188.331592 
L 397.778202 192.114815 
L 397.683193 196.509329 
L 397.346532 200.921776 
L 396.842099 204.686557 
L 396.134993 208.427178 
L 395.226518 212.140917 
L 393.932867 216.425271 
L 392.607418 220.075736 
L 391.083569 223.669861 
L 389.076629 227.803097 
L 386.849123 231.874757 
L 384.405188 235.883915 
L 381.361541 240.381367 
L 378.476093 244.242979 
L 375.397667 248.002831 
L 372.608959 251.150588 
L 369.180817 254.723851 
L 365.558693 258.212804 
L 361.733666 261.561435 
L 357.71746 264.781146 
L 352.30694 268.726911 
L 347.259486 272.024995 
L 342.650812 274.749694 
L 337.216627 277.696229 
L 331.570429 280.412376 
L 325.7491 282.913827 
L 319.761188 285.170984 
L 314.406288 286.976895 
L 308.150118 288.79329 
L 303.381128 289.987865 
L 296.120636 291.537413 
L 287.963713 292.97281 
L 281.366401 293.889858 
L 274.733006 294.605617 
L 268.067216 295.116866 
L 259.69752 295.459301 
L 254.676176 295.474844 
L 247.975074 295.245319 
L 242.967233 294.879274 
L 237.16351 294.230484 
L 231.414747 293.360371 
L 225.73079 292.269766 
L 220.138323 290.95513 
L 212.269536 288.799241 
L 203.738484 286.192426 
L 195.349904 283.330127 
L 187.857059 280.519468 
L 180.501324 277.50777 
L 174.753554 274.91607 
L 169.855098 272.497025 
L 164.411216 269.564815 
L 159.136176 266.458375 
L 154.047903 263.184611 
L 149.147227 259.74628 
L 144.451485 256.156725 
L 140.498264 252.896184 
L 136.184663 249.042088 
L 132.090734 245.055951 
L 128.224734 240.948168 
L 125.027479 237.25645 
L 122.010493 233.482009 
L 118.347472 228.529844 
L 114.911143 223.494791 
L 111.694076 218.370675 
L 108.708669 213.171107 
L 106.254637 208.488803 
L 103.996759 203.749347 
L 102.497753 200.145796 
L 101.182009 196.502434 
L 99.881078 192.212252 
L 98.831972 187.880522 
L 98.133617 184.144211 
L 97.559164 179.762662 
L 97.241119 175.368532 
L 97.174567 170.96771 
L 97.345147 166.566562 
L 97.757397 162.171801 
L 98.40711 157.793497 
L 99.294014 153.439191 
L 100.417 149.118633 
L 101.773764 144.833803 
L 103.35681 140.594335 
L 105.150951 136.401634 
L 107.150432 132.259504 
L 109.355804 128.177471 
L 111.764691 124.158585 
L 114.367799 120.211902 
L 117.16501 116.339916 
L 120.160924 112.553163 
L 123.378944 108.872045 
L 126.814735 105.302916 
L 130.463806 101.855033 
L 134.319077 98.533782 
L 138.365685 95.347665 
L 142.601492 92.301488 
L 147.64203 88.982713 
L 154.111756 84.986995 
L 160.763959 81.142235 
L 167.555388 77.457035 
L 174.517298 73.935413 
L 181.620292 70.589152 
L 188.175149 67.791289 
L 194.146567 65.482007 
L 200.217488 63.349707 
L 206.413451 61.391908 
L 212.686387 59.61908 
L 219.063061 58.033668 
L 224.710351 56.838025 
L 231.240155 55.701224 
L 237.003168 54.910372 
L 242.821926 54.307588 
L 249.504154 53.853089 
L 256.198775 53.648194 
L 262.894223 53.694437 
L 269.580593 53.983763 
L 276.240128 54.512402 
L 282.85069 55.28062 
L 289.423395 56.289693 
L 295.925084 57.537642 
L 298.34794 58.066908 
L 298.34794 58.066908 
" style="fill:none;stroke:#ff7f0e;stroke-linecap:square;stroke-width:1.5;"/>
   </g>
   <g id="patch_3">
    <path d="M 57.6 307.584 
L 57.6 41.472 
" style="fill:none;stroke:#000000;stroke-linecap:square;stroke-linejoin:miter;stroke-width:0.8;"/>
   </g>
   <g id="patch_4">
    <path d="M 414.72 307.584 
L 414.72 41.472 
" style="fill:none;stroke:#000000;stroke-linecap:square;stroke-linejoin:miter;stroke-width:0.8;"/>
   </g>
   <g id="patch_5">
    <path d="M 57.6 307.584 
L 414.72 307.584 
" style="fill:none;stroke:#000000;stroke-linecap:square;stroke-linejoin:miter;stroke-width:0.8;"/>
   </g>
   <g id="patch_6">
    <path d="M 57.6 41.472 
L 414.72 41.472 
" style="fill:none;stroke:#000000;stroke-linecap:square;stroke-linejoin:miter;stroke-width:0.8;"/>
   </g>
   <g id="text_11">
    <!-- EKF Localization -->
    <defs>
     <path d="M 9.8125 72.90625 
L 55.90625 72.90625 
L 55.90625 64.59375 
L 19.671875 64.59375 
L 19.671875 43.015625 
L 54.390625 43.015625 
L 54.390625 34.71875 
L 19.671875 34.71875 
L 19.671875 8.296875 
L 56.78125 8.296875 
L 56.78125 0 
L 9.8125 0 
z
" id="DejaVuSans-69"/>
     <path d="M 9.8125 72.90625 
L 19.671875 72.90625 
L 19.671875 42.09375 
L 52.390625 72.90625 
L 65.09375 72.90625 
L 28.90625 38.921875 
L 67.671875 0 
L 54.6875 0 
L 19.671875 35.109375 
L 19.671875 0 
L 9.8125 0 
z
" id="DejaVuSans-75"/>
     <path d="M 9.8125 72.90625 
L 51.703125 72.90625 
L 51.703125 64.59375 
L 19.671875 64.59375 
L 19.671875 43.109375 
L 48.578125 43.109375 
L 48.578125 34.8125 
L 19.671875 34.8125 
L 19.671875 0 
L 9.8125 0 
z
" id="DejaVuSans-70"/>
     <path d="M 9.8125 72.90625 
L 19.671875 72.90625 
L 19.671875 8.296875 
L 55.171875 8.296875 
L 55.171875 0 
L 9.8125 0 
z
" id="DejaVuSans-76"/>
     <path d="M 30.609375 48.390625 
Q 23.390625 48.390625 19.1875 42.75 
Q 14.984375 37.109375 14.984375 27.296875 
Q 14.984375 17.484375 19.15625 11.84375 
Q 23.34375 6.203125 30.609375 6.203125 
Q 37.796875 6.203125 41.984375 11.859375 
Q 46.1875 17.53125 46.1875 27.296875 
Q 46.1875 37.015625 41.984375 42.703125 
Q 37.796875 48.390625 30.609375 48.390625 
z
M 30.609375 56 
Q 42.328125 56 49.015625 48.375 
Q 55.71875 40.765625 55.71875 27.296875 
Q 55.71875 13.875 49.015625 6.21875 
Q 42.328125 -1.421875 30.609375 -1.421875 
Q 18.84375 -1.421875 12.171875 6.21875 
Q 5.515625 13.875 5.515625 27.296875 
Q 5.515625 40.765625 12.171875 48.375 
Q 18.84375 56 30.609375 56 
z
" id="DejaVuSans-111"/>
     <path d="M 48.78125 52.59375 
L 48.78125 44.1875 
Q 44.96875 46.296875 41.140625 47.34375 
Q 37.3125 48.390625 33.40625 48.390625 
Q 24.65625 48.390625 19.8125 42.84375 
Q 14.984375 37.3125 14.984375 27.296875 
Q 14.984375 17.28125 19.8125 11.734375 
Q 24.65625 6.203125 33.40625 6.203125 
Q 37.3125 6.203125 41.140625 7.25 
Q 44.96875 8.296875 48.78125 10.40625 
L 48.78125 2.09375 
Q 45.015625 0.34375 40.984375 -0.53125 
Q 36.96875 -1.421875 32.421875 -1.421875 
Q 20.0625 -1.421875 12.78125 6.34375 
Q 5.515625 14.109375 5.515625 27.296875 
Q 5.515625 40.671875 12.859375 48.328125 
Q 20.21875 56 33.015625 56 
Q 37.15625 56 41.109375 55.140625 
Q 45.0625 54.296875 48.78125 52.59375 
z
" id="DejaVuSans-99"/>
     <path d="M 34.28125 27.484375 
Q 23.390625 27.484375 19.1875 25 
Q 14.984375 22.515625 14.984375 16.5 
Q 14.984375 11.71875 18.140625 8.90625 
Q 21.296875 6.109375 26.703125 6.109375 
Q 34.1875 6.109375 38.703125 11.40625 
Q 43.21875 16.703125 43.21875 25.484375 
L 43.21875 27.484375 
z
M 52.203125 31.203125 
L 52.203125 0 
L 43.21875 0 
L 43.21875 8.296875 
Q 40.140625 3.328125 35.546875 0.953125 
Q 30.953125 -1.421875 24.3125 -1.421875 
Q 15.921875 -1.421875 10.953125 3.296875 
Q 6 8.015625 6 15.921875 
Q 6 25.140625 12.171875 29.828125 
Q 18.359375 34.515625 30.609375 34.515625 
L 43.21875 34.515625 
L 43.21875 35.40625 
Q 43.21875 41.609375 39.140625 45 
Q 35.0625 48.390625 27.6875 48.390625 
Q 23 48.390625 18.546875 47.265625 
Q 14.109375 46.140625 10.015625 43.890625 
L 10.015625 52.203125 
Q 14.9375 54.109375 19.578125 55.046875 
Q 24.21875 56 28.609375 56 
Q 40.484375 56 46.34375 49.84375 
Q 52.203125 43.703125 52.203125 31.203125 
z
" id="DejaVuSans-97"/>
     <path d="M 9.421875 75.984375 
L 18.40625 75.984375 
L 18.40625 0 
L 9.421875 0 
z
" id="DejaVuSans-108"/>
     <path d="M 9.421875 54.6875 
L 18.40625 54.6875 
L 18.40625 0 
L 9.421875 0 
z
M 9.421875 75.984375 
L 18.40625 75.984375 
L 18.40625 64.59375 
L 9.421875 64.59375 
z
" id="DejaVuSans-105"/>
     <path d="M 5.515625 54.6875 
L 48.1875 54.6875 
L 48.1875 46.484375 
L 14.40625 7.171875 
L 48.1875 7.171875 
L 48.1875 0 
L 4.296875 0 
L 4.296875 8.203125 
L 38.09375 47.515625 
L 5.515625 47.515625 
z
" id="DejaVuSans-122"/>
     <path d="M 18.3125 70.21875 
L 18.3125 54.6875 
L 36.8125 54.6875 
L 36.8125 47.703125 
L 18.3125 47.703125 
L 18.3125 18.015625 
Q 18.3125 11.328125 20.140625 9.421875 
Q 21.96875 7.515625 27.59375 7.515625 
L 36.8125 7.515625 
L 36.8125 0 
L 27.59375 0 
Q 17.1875 0 13.234375 3.875 
Q 9.28125 7.765625 9.28125 18.015625 
L 9.28125 47.703125 
L 2.6875 47.703125 
L 2.6875 54.6875 
L 9.28125 54.6875 
L 9.28125 70.21875 
z
" id="DejaVuSans-116"/>
     <path d="M 54.890625 33.015625 
L 54.890625 0 
L 45.90625 0 
L 45.90625 32.71875 
Q 45.90625 40.484375 42.875 44.328125 
Q 39.84375 48.1875 33.796875 48.1875 
Q 26.515625 48.1875 22.3125 43.546875 
Q 18.109375 38.921875 18.109375 30.90625 
L 18.109375 0 
L 9.078125 0 
L 9.078125 54.6875 
L 18.109375 54.6875 
L 18.109375 46.1875 
Q 21.34375 51.125 25.703125 53.5625 
Q 30.078125 56 35.796875 56 
Q 45.21875 56 50.046875 50.171875 
Q 54.890625 44.34375 54.890625 33.015625 
z
" id="DejaVuSans-110"/>
    </defs>
    <g transform="translate(187.434375 35.472)scale(0.12 -0.12)">
     <use xlink:href="#DejaVuSans-69"/>
     <use x="63.183594" xlink:href="#DejaVuSans-75"/>
     <use x="128.759766" xlink:href="#DejaVuSans-70"/>
     <use x="186.279297" xlink:href="#DejaVuSans-32"/>
     <use x="218.066406" xlink:href="#DejaVuSans-76"/>
     <use x="273.763672" xlink:href="#DejaVuSans-111"/>
     <use x="334.945312" xlink:href="#DejaVuSans-99"/>
     <use x="389.925781" xlink:href="#DejaVuSans-97"/>
     <use x="451.205078" xlink:href="#DejaVuSans-108"/>
     <use x="478.988281" xlink:href="#DejaVuSans-105"/>
     <use x="506.771484" xlink:href="#DejaVuSans-122"/>
     <use x="559.261719" xlink:href="#DejaVuSans-97"/>
     <use x="620.541016" xlink:href="#DejaVuSans-116"/>
     <use x="659.75" xlink:href="#DejaVuSans-105"/>
     <use x="687.533203" xlink:href="#DejaVuSans-111"/>
     <use x="748.714844" xlink:href="#DejaVuSans-110"/>
    </g>
   </g>
   <g id="legend_1">
    <g id="patch_7">
     <path d="M 188.800625 190.706125 
L 283.519375 190.706125 
Q 285.519375 190.706125 285.519375 188.706125 
L 285.519375 160.349875 
Q 285.519375 158.349875 283.519375 158.349875 
L 188.800625 158.349875 
Q 186.800625 158.349875 186.800625 160.349875 
L 186.800625 188.706125 
Q 186.800625 190.706125 188.800625 190.706125 
z
" style="fill:#ffffff;opacity:0.8;stroke:#cccccc;stroke-linejoin:miter;"/>
    </g>
    <g id="line2d_19">
     <path d="M 190.800625 166.448312 
L 210.800625 166.448312 
" style="fill:none;stroke:#1f77b4;stroke-linecap:square;stroke-width:1.5;"/>
    </g>
    <g id="line2d_20"/>
    <g id="text_12">
     <!-- car position -->
     <defs>
      <path d="M 41.109375 46.296875 
Q 39.59375 47.171875 37.8125 47.578125 
Q 36.03125 48 33.890625 48 
Q 26.265625 48 22.1875 43.046875 
Q 18.109375 38.09375 18.109375 28.8125 
L 18.109375 0 
L 9.078125 0 
L 9.078125 54.6875 
L 18.109375 54.6875 
L 18.109375 46.1875 
Q 20.953125 51.171875 25.484375 53.578125 
Q 30.03125 56 36.53125 56 
Q 37.453125 56 38.578125 55.875 
Q 39.703125 55.765625 41.0625 55.515625 
z
" id="DejaVuSans-114"/>
      <path d="M 18.109375 8.203125 
L 18.109375 -20.796875 
L 9.078125 -20.796875 
L 9.078125 54.6875 
L 18.109375 54.6875 
L 18.109375 46.390625 
Q 20.953125 51.265625 25.265625 53.625 
Q 29.59375 56 35.59375 56 
Q 45.5625 56 51.78125 48.09375 
Q 58.015625 40.1875 58.015625 27.296875 
Q 58.015625 14.40625 51.78125 6.484375 
Q 45.5625 -1.421875 35.59375 -1.421875 
Q 29.59375 -1.421875 25.265625 0.953125 
Q 20.953125 3.328125 18.109375 8.203125 
z
M 48.6875 27.296875 
Q 48.6875 37.203125 44.609375 42.84375 
Q 40.53125 48.484375 33.40625 48.484375 
Q 26.265625 48.484375 22.1875 42.84375 
Q 18.109375 37.203125 18.109375 27.296875 
Q 18.109375 17.390625 22.1875 11.75 
Q 26.265625 6.109375 33.40625 6.109375 
Q 40.53125 6.109375 44.609375 11.75 
Q 48.6875 17.390625 48.6875 27.296875 
z
" id="DejaVuSans-112"/>
      <path d="M 44.28125 53.078125 
L 44.28125 44.578125 
Q 40.484375 46.53125 36.375 47.5 
Q 32.28125 48.484375 27.875 48.484375 
Q 21.1875 48.484375 17.84375 46.4375 
Q 14.5 44.390625 14.5 40.28125 
Q 14.5 37.15625 16.890625 35.375 
Q 19.28125 33.59375 26.515625 31.984375 
L 29.59375 31.296875 
Q 39.15625 29.25 43.1875 25.515625 
Q 47.21875 21.78125 47.21875 15.09375 
Q 47.21875 7.46875 41.1875 3.015625 
Q 35.15625 -1.421875 24.609375 -1.421875 
Q 20.21875 -1.421875 15.453125 -0.5625 
Q 10.6875 0.296875 5.421875 2 
L 5.421875 11.28125 
Q 10.40625 8.6875 15.234375 7.390625 
Q 20.0625 6.109375 24.8125 6.109375 
Q 31.15625 6.109375 34.5625 8.28125 
Q 37.984375 10.453125 37.984375 14.40625 
Q 37.984375 18.0625 35.515625 20.015625 
Q 33.0625 21.96875 24.703125 23.78125 
L 21.578125 24.515625 
Q 13.234375 26.265625 9.515625 29.90625 
Q 5.8125 33.546875 5.8125 39.890625 
Q 5.8125 47.609375 11.28125 51.796875 
Q 16.75 56 26.8125 56 
Q 31.78125 56 36.171875 55.265625 
Q 40.578125 54.546875 44.28125 53.078125 
z
" id="DejaVuSans-115"/>
     </defs>
     <g transform="translate(218.800625 169.948312)scale(0.1 -0.1)">
      <use xlink:href="#DejaVuSans-99"/>
      <use x="54.980469" xlink:href="#DejaVuSans-97"/>
      <use x="116.259766" xlink:href="#DejaVuSans-114"/>
      <use x="157.373047" xlink:href="#DejaVuSans-32"/>
      <use x="189.160156" xlink:href="#DejaVuSans-112"/>
      <use x="252.636719" xlink:href="#DejaVuSans-111"/>
      <use x="313.818359" xlink:href="#DejaVuSans-115"/>
      <use x="365.917969" xlink:href="#DejaVuSans-105"/>
      <use x="393.701172" xlink:href="#DejaVuSans-116"/>
      <use x="432.910156" xlink:href="#DejaVuSans-105"/>
      <use x="460.693359" xlink:href="#DejaVuSans-111"/>
      <use x="521.875" xlink:href="#DejaVuSans-110"/>
     </g>
    </g>
    <g id="line2d_21">
     <path d="M 190.800625 181.126437 
L 210.800625 181.126437 
" style="fill:none;stroke:#ff7f0e;stroke-linecap:square;stroke-width:1.5;"/>
    </g>
    <g id="line2d_22"/>
    <g id="text_13">
     <!-- EKF tracking -->
     <defs>
      <path d="M 9.078125 75.984375 
L 18.109375 75.984375 
L 18.109375 31.109375 
L 44.921875 54.6875 
L 56.390625 54.6875 
L 27.390625 29.109375 
L 57.625 0 
L 45.90625 0 
L 18.109375 26.703125 
L 18.109375 0 
L 9.078125 0 
z
" id="DejaVuSans-107"/>
      <path d="M 45.40625 27.984375 
Q 45.40625 37.75 41.375 43.109375 
Q 37.359375 48.484375 30.078125 48.484375 
Q 22.859375 48.484375 18.828125 43.109375 
Q 14.796875 37.75 14.796875 27.984375 
Q 14.796875 18.265625 18.828125 12.890625 
Q 22.859375 7.515625 30.078125 7.515625 
Q 37.359375 7.515625 41.375 12.890625 
Q 45.40625 18.265625 45.40625 27.984375 
z
M 54.390625 6.78125 
Q 54.390625 -7.171875 48.1875 -13.984375 
Q 42 -20.796875 29.203125 -20.796875 
Q 24.46875 -20.796875 20.265625 -20.09375 
Q 16.0625 -19.390625 12.109375 -17.921875 
L 12.109375 -9.1875 
Q 16.0625 -11.328125 19.921875 -12.34375 
Q 23.78125 -13.375 27.78125 -13.375 
Q 36.625 -13.375 41.015625 -8.765625 
Q 45.40625 -4.15625 45.40625 5.171875 
L 45.40625 9.625 
Q 42.625 4.78125 38.28125 2.390625 
Q 33.9375 0 27.875 0 
Q 17.828125 0 11.671875 7.65625 
Q 5.515625 15.328125 5.515625 27.984375 
Q 5.515625 40.671875 11.671875 48.328125 
Q 17.828125 56 27.875 56 
Q 33.9375 56 38.28125 53.609375 
Q 42.625 51.21875 45.40625 46.390625 
L 45.40625 54.6875 
L 54.390625 54.6875 
z
" id="DejaVuSans-103"/>
     </defs>
     <g transform="translate(218.800625 184.626437)scale(0.1 -0.1)">
      <use xlink:href="#DejaVuSans-69"/>
      <use x="63.183594" xlink:href="#DejaVuSans-75"/>
      <use x="128.759766" xlink:href="#DejaVuSans-70"/>
      <use x="186.279297" xlink:href="#DejaVuSans-32"/>
      <use x="218.066406" xlink:href="#DejaVuSans-116"/>
      <use x="257.275391" xlink:href="#DejaVuSans-114"/>
      <use x="298.388672" xlink:href="#DejaVuSans-97"/>
      <use x="359.667969" xlink:href="#DejaVuSans-99"/>
      <use x="414.648438" xlink:href="#DejaVuSans-107"/>
      <use x="472.558594" xlink:href="#DejaVuSans-105"/>
      <use x="500.341797" xlink:href="#DejaVuSans-110"/>
      <use x="563.720703" xlink:href="#DejaVuSans-103"/>
     </g>
    </g>
   </g>
  </g>
 </g>
 <defs>
  <clipPath id="p2eb4e79c58">
   <rect height="266.112" width="357.12" x="57.6" y="41.472"/>
  </clipPath>
 </defs>
</svg>
